P2
# CREATOR: GIMP PNM Filter Version 1.1
92 112
255
214
218
219
217
217
218
216
216
215
215
209
213
211
214
205
202
144
179
100
92
88
76
82
91
108
85
84
85
63
57
64
89
70
47
63
73
85
47
80
62
59
60
63
78
66
65
65
96
90
97
48
54
62
50
50
76
83
110
143
169
180
175
173
180
178
164
166
167
155
159
155
156
152
148
148
150
150
147
146
146
147
146
144
141
139
139
141
143
137
135
136
133
217
221
221
219
219
219
217
217
213
216
208
213
210
201
205
177
175
163
115
64
87
75
73
82
101
92
80
98
61
56
66
54
75
62
52
60
61
66
60
58
42
52
57
59
46
63
63
76
73
75
60
49
54
51
55
65
63
58
73
97
130
140
141
131
139
162
161
156
157
159
160
156
153
151
152
152
151
151
148
146
147
144
141
140
142
143
141
138
138
136
137
134
218
222
222
220
220
220
218
218
220
219
207
209
210
186
195
178
185
171
73
73
81
68
79
71
84
87
88
87
72
61
69
63
61
70
64
64
53
60
64
59
48
46
49
59
49
48
55
58
72
60
52
43
47
47
58
61
64
56
60
68
78
90
102
100
86
116
144
148
146
164
152
155
154
154
155
153
151
153
150
146
146
146
145
143
142
141
140
137
138
135
136
134
218
222
222
221
221
221
220
220
213
215
213
199
202
192
172
192
175
158
81
78
78
69
77
65
70
73
81
90
74
71
69
75
51
62
64
71
60
54
58
59
43
42
45
52
52
45
63
43
65
50
36
42
41
48
58
68
58
65
64
66
52
62
72
83
58
73
101
135
150
160
157
152
156
154
154
153
150
151
149
147
148
148
147
144
141
140
139
137
138
135
135
132
220
223
223
223
223
222
221
222
219
211
214
210
195
199
143
188
157
125
118
83
85
68
59
69
56
68
64
79
79
62
55
63
72
54
58
46
79
62
47
47
42
40
42
43
43
49
59
37
49
43
41
45
40
51
42
58
51
57
56
67
61
62
61
76
71
61
74
106
157
163
162
156
159
154
153
153
151
149
149
149
150
148
144
142
143
144
140
135
138
136
135
131
221
224
224
224
224
223
221
223
222
223
219
222
214
169
145
113
135
133
116
103
81
68
54
58
64
39
45
54
64
68
68
49
53
67
66
56
46
51
43
46
53
38
38
39
31
45
36
37
41
34
28
53
46
38
49
34
44
60
62
54
68
81
74
58
55
70
108
133
150
158
154
168
162
156
155
155
152
150
150
151
145
146
145
143
144
144
141
136
138
135
135
131
222
225
225
225
225
224
223
224
223
225
222
219
195
216
179
118
101
121
100
81
59
62
48
41
51
49
55
56
48
64
67
73
55
68
70
69
55
54
65
50
48
44
41
33
27
42
34
35
32
24
24
23
52
59
30
49
46
37
40
49
68
65
60
52
44
72
97
143
164
169
158
153
163
159
157
156
153
152
152
150
143
147
148
145
142
142
141
139
137
135
137
134
223
225
226
227
228
227
226
228
227
219
220
223
211
220
190
117
85
91
91
79
71
67
61
83
60
71
68
67
65
57
71
61
59
47
55
69
69
54
51
62
49
58
51
39
42
39
43
35
35
22
25
26
31
58
54
42
38
39
48
53
50
50
53
52
58
56
63
84
155
163
152
162
161
160
159
156
153
154
153
148
149
149
146
142
142
144
142
138
138
136
138
137
224
230
229
227
229
229
227
228
227
221
218
227
218
214
185
110
88
73
82
76
65
79
95
81
75
79
77
75
56
58
57
55
62
53
50
59
57
54
48
48
54
58
42
44
46
42
38
35
33
31
21
26
28
40
47
43
35
38
42
48
48
47
63
61
61
66
61
53
87
151
151
157
158
163
153
161
154
154
152
153
150
148
144
143
146
145
141
140
137
136
137
136
224
228
228
227
230
230
227
228
234
221
223
222
221
194
150
94
90
70
75
61
71
85
92
67
84
74
75
57
58
56
52
55
58
60
59
58
53
54
50
44
52
51
42
52
49
34
29
33
34
32
25
18
35
27
30
46
34
33
34
41
49
52
63
61
60
67
74
66
29
113
152
156
157
159
160
158
154
152
159
152
149
150
148
145
144
142
141
143
138
137
137
136
227
229
229
230
232
232
230
230
232
226
221
209
195
157
105
79
74
68
63
69
83
65
49
80
83
70
70
58
72
65
55
58
52
56
60
63
55
55
55
56
49
59
51
46
41
43
41
29
23
23
17
26
35
29
27
37
27
27
31
36
45
43
42
39
43
54
62
66
52
49
143
172
159
155
165
161
164
159
154
151
150
151
148
145
143
141
140
143
141
139
137
136
228
230
232
232
232
232
232
233
233
236
224
156
147
103
132
155
119
79
78
78
47
62
69
59
62
80
63
59
32
40
39
48
53
56
61
69
64
64
66
73
72
73
65
63
61
66
65
56
50
46
24
26
21
21
32
35
34
35
35
28
33
30
31
38
55
54
61
71
70
66
52
94
161
171
154
156
157
148
156
154
153
152
147
144
145
143
141
141
142
140
138
137
229
232
234
233
230
231
233
233
225
206
171
183
132
140
144
113
89
78
75
62
64
57
57
71
65
44
40
49
58
43
59
64
68
70
72
75
70
73
75
76
77
71
67
76
75
73
70
70
68
69
63
45
39
27
28
26
32
34
33
25
30
30
36
50
41
52
61
68
58
76
72
110
132
145
162
160
159
164
157
158
155
153
149
147
147
145
141
141
141
140
139
138
231
234
237
234
231
233
234
230
218
218
181
205
121
112
98
82
81
74
67
55
59
68
70
62
43
41
53
63
64
70
72
72
79
75
74
81
77
77
76
78
77
81
80
81
79
82
80
78
81
71
81
68
55
52
35
34
21
27
28
28
38
36
38
44
38
45
43
60
58
76
73
121
152
148
166
165
161
157
159
154
154
155
153
150
148
145
143
144
141
140
139
139
233
235
238
235
233
237
235
225
224
197
167
154
95
69
64
62
71
69
62
62
61
62
63
60
46
55
69
74
76
76
82
85
83
76
75
85
84
83
81
85
87
89
85
87
86
86
82
87
87
77
83
84
68
75
54
43
38
37
31
31
41
39
45
45
42
53
47
51
64
66
54
84
151
153
165
163
162
160
156
160
155
154
152
150
149
148
145
145
142
141
140
139
234
235
236
234
234
239
234
219
231
158
114
77
75
62
58
56
59
61
67
72
78
42
48
64
62
78
74
82
89
86
89
84
85
85
85
88
87
94
92
87
93
94
89
89
93
95
86
88
83
93
86
80
88
81
76
65
55
51
37
36
43
42
52
51
49
58
61
63
53
52
46
40
105
164
158
163
163
159
157
155
158
154
149
147
150
150
146
144
143
142
140
138
235
242
236
237
239
235
236
203
205
110
82
71
72
63
68
65
51
47
70
84
40
43
78
68
82
85
90
92
91
91
93
92
90
90
93
96
91
96
95
92
95
99
91
90
93
94
97
91
88
87
88
88
89
91
84
79
77
67
48
30
26
33
54
52
57
40
32
53
67
80
71
43
51
162
173
160
166
158
160
155
155
154
152
150
149
149
147
145
143
143
141
138
238
238
243
241
234
235
247
223
149
95
72
75
55
73
56
55
53
85
67
44
73
80
79
95
93
91
93
96
96
97
99
96
95
94
94
96
90
94
96
97
98
93
99
97
100
101
91
97
92
98
87
92
90
84
93
84
77
77
75
57
35
20
29
49
60
64
75
69
49
58
75
77
46
94
158
159
164
165
161
161
156
154
153
151
149
148
147
145
145
144
143
141
234
237
239
245
240
222
180
189
115
74
58
76
77
68
71
75
74
56
60
73
88
90
94
102
100
94
94
96
97
97
98
97
95
94
94
98
93
94
94
97
94
99
98
96
98
97
96
93
96
94
93
94
94
92
90
89
86
84
87
80
57
28
16
40
46
54
53
62
62
60
60
68
49
49
153
166
157
161
161
159
155
155
153
151
150
149
147
146
144
143
142
140
240
238
242
239
245
231
140
123
103
80
74
64
66
79
65
63
62
61
74
99
100
100
97
99
97
95
96
97
93
92
94
98
93
93
93
99
95
94
93
96
91
101
94
93
94
93
98
91
95
89
93
94
97
99
91
91
95
90
86
88
78
61
35
32
36
39
51
59
68
43
57
59
63
38
121
172
170
160
163
161
155
155
154
152
151
150
149
147
142
142
140
138
243
238
245
242
249
196
98
64
77
76
75
70
63
65
56
58
68
92
102
108
102
106
107
97
96
95
97
97
92
91
94
97
98
96
93
97
95
96
94
98
96
92
98
97
98
98
90
99
95
95
87
93
96
94
98
96
94
96
88
88
83
82
65
41
33
36
43
57
62
47
44
59
61
60
101
165
174
162
164
164
157
156
155
153
151
150
150
148
145
144
143
140
237
241
252
240
244
106
60
62
49
56
62
71
73
39
71
78
101
114
109
107
112
97
98
100
97
94
95
94
93
94
95
93
97
98
95
98
98
98
94
96
99
98
98
96
96
96
94
97
95
95
95
94
93
94
96
99
95
91
86
92
88
84
80
66
26
29
40
39
40
61
46
48
53
86
112
161
164
166
163
160
159
158
156
154
152
150
149
147
146
145
144
141
241
237
238
249
168
96
96
72
76
76
72
48
46
79
108
118
119
113
106
105
107
94
95
98
98
95
94
94
94
97
97
93
93
97
95
98
97
98
94
96
97
104
94
93
93
90
97
91
94
89
100
93
93
98
88
94
95
86
85
92
94
85
82
82
77
21
27
35
47
47
54
46
53
76
116
170
167
168
163
161
159
158
158
155
153
152
150
148
144
144
142
140
247
240
163
103
79
66
76
65
63
55
58
58
68
118
121
117
117
108
102
104
101
102
97
104
99
99
98
96
95
99
100
96
92
97
93
93
93
98
96
101
96
93
96
96
98
96
88
93
92
92
90
90
93
94
91
85
89
92
95
84
90
92
84
82
79
65
22
29
45
52
42
51
41
64
129
179
160
159
167
158
158
157
157
155
154
153
151
149
145
145
143
141
243
236
150
65
67
65
74
65
58
51
54
54
102
125
115
115
109
105
103
102
103
103
101
101
102
100
98
98
97
96
96
97
95
98
94
96
98
94
95
99
102
97
96
95
99
98
89
94
91
87
93
90
91
92
93
89
92
90
86
90
86
91
88
79
84
80
50
25
49
53
52
48
47
61
80
187
166
165
166
162
161
158
157
156
154
151
150
151
148
145
142
142
242
232
176
135
146
122
93
64
59
62
41
73
123
124
110
114
109
107
104
103
103
103
101
102
101
99
98
99
100
99
98
97
93
100
97
97
99
97
95
95
98
99
99
95
97
99
93
95
96
89
93
93
92
89
91
92
93
89
85
87
85
87
88
84
83
80
81
38
30
52
59
46
60
57
58
151
174
163
162
166
160
159
157
157
156
153
151
150
150
147
143
142
246
240
200
225
189
162
105
61
62
50
49
113
130
113
110
112
105
104
104
103
101
100
101
103
103
101
100
102
103
102
99
97
93
99
97
99
101
98
97
97
97
98
98
96
98
100
95
94
99
96
100
93
90
92
94
89
92
89
88
91
89
85
88
85
85
79
91
69
18
43
55
53
57
47
75
117
171
167
172
161
159
159
157
156
155
154
151
147
150
147
144
142
241
247
251
174
66
58
67
77
54
34
79
136
124
114
115
112
99
101
100
100
99
98
102
103
102
100
100
102
103
103
100
97
98
97
96
101
101
95
97
102
101
96
94
99
103
101
96
94
94
91
96
90
92
96
97
90
92
91
93
91
91
83
87
85
86
79
82
90
36
32
50
65
68
50
49
134
176
158
166
162
159
160
158
155
154
154
151
147
149
146
144
142
244
253
206
92
78
64
58
59
58
61
121
134
119
112
102
95
100
100
97
98
99
98
101
100
96
96
96
97
99
100
99
98
105
102
100
104
100
93
97
101
102
96
93
98
102
101
100
99
92
80
87
93
99
96
96
95
93
94
93
87
88
84
88
86
83
81
81
85
69
30
47
71
36
45
50
151
180
169
165
167
160
161
159
155
153
153
152
150
149
147
144
141
247
254
183
96
64
55
79
68
54
84
136
132
119
103
101
102
106
106
98
100
100
98
100
95
92
94
95
95
96
98
99
100
104
107
106
104
99
98
101
99
98
99
97
97
97
100
107
105
100
90
96
100
102
98
95
92
91
95
92
88
90
88
89
85
83
83
82
82
86
39
31
65
74
45
54
148
177
173
161
165
161
160
158
155
153
152
152
150
149
147
144
141
248
254
220
99
50
83
92
65
63
106
137
134
114
95
102
110
107
108
99
100
100
97
99
93
93
95
96
96
96
98
99
100
101
103
103
102
100
102
107
101
94
97
98
99
95
97
106
105
105
102
107
103
99
97
95
89
90
95
90
92
94
92
86
83
83
82
79
83
84
57
25
49
73
59
53
169
171
165
169
165
161
159
158
157
155
152
150
149
147
146
143
140
248
252
239
96
52
113
90
53
68
123
132
128
113
108
109
113
104
105
96
98
99
96
99
92
95
96
97
96
96
97
98
97
102
100
100
103
102
103
107
104
94
93
94
102
99
95
103
102
101
96
103
101
98
94
96
97
95
94
84
90
91
90
84
84
79
80
81
77
84
71
39
34
59
61
58
162
178
165
170
165
164
160
158
158
157
154
150
149
146
146
142
139
247
255
216
90
78
128
77
50
84
134
129
124
110
117
103
107
100
97
96
95
91
92
95
96
96
93
93
98
91
92
90
91
96
95
97
99
95
104
104
109
91
83
93
88
98
88
96
94
96
94
92
93
96
101
93
92
94
92
85
89
93
88
86
83
82
79
80
78
78
70
47
35
48
66
66
143
186
163
168
160
162
158
158
157
154
153
152
147
147
145
144
142
248
255
227
92
145
100
59
77
112
134
129
125
113
113
104
100
99
91
89
93
92
88
91
93
88
84
88
86
86
85
90
86
80
83
88
87
85
94
96
102
96
78
83
88
91
93
89
87
93
87
90
88
101
99
98
97
94
100
94
90
89
90
91
87
79
78
75
69
74
79
56
32
46
69
60
131
173
164
164
165
162
158
158
157
154
153
151
147
146
145
143
142
252
255
212
115
135
73
92
85
111
130
135
120
105
95
91
84
86
82
78
77
78
79
79
75
72
75
74
68
77
78
79
80
84
83
85
79
82
87
89
88
99
73
78
87
86
92
81
80
81
78
74
83
85
93
86
93
94
102
99
92
91
94
95
90
79
79
81
74
71
74
60
41
44
70
47
123
179
171
163
164
161
158
157
156
153
151
151
147
146
145
144
142
248
254
195
126
109
82
83
87
126
133
123
104
99
86
78
71
66
66
65
62
63
68
67
59
63
64
61
62
60
67
70
71
79
80
81
74
80
84
89
88
97
73
76
83
85
84
74
74
74
69
69
67
74
77
80
87
90
93
93
94
96
95
92
90
85
82
83
79
75
76
64
44
47
75
39
101
175
169
167
162
160
158
156
155
153
151
150
147
145
144
142
141
254
251
185
141
106
81
71
99
141
125
107
94
88
71
61
59
56
53
55
57
55
53
53
54
54
46
50
57
45
55
64
62
69
71
72
67
74
75
83
87
91
79
70
77
82
76
66
65
66
63
63
55
58
63
69
78
76
78
83
88
92
91
87
89
85
85
85
79
74
79
69
46
49
76
55
85
168
168
168
161
159
158
155
153
153
151
148
147
144
142
140
139
251
254
182
131
104
69
69
116
135
110
103
88
67
58
60
56
56
54
54
51
43
39
40
40
37
37
39
39
46
44
53
60
67
65
61
64
76
76
77
78
86
84
65
73
74
73
60
55
56
58
50
45
38
48
50
61
60
66
74
75
78
81
81
84
84
84
82
80
75
75
69
53
56
63
67
84
168
170
160
164
159
158
155
152
152
150
147
147
143
142
141
140
251
254
193
122
86
67
70
124
135
101
90
74
61
63
70
61
54
54
49
41
33
33
34
32
30
37
37
32
45
44
47
57
60
56
49
65
82
81
76
78
81
83
68
67
66
69
56
45
52
46
45
32
35
32
37
42
45
52
60
58
61
69
67
70
81
81
77
80
82
77
69
57
61
60
70
90
162
167
158
165
160
159
154
151
151
149
145
147
143
142
142
141
254
252
180
125
77
57
97
145
120
82
70
60
64
59
59
54
50
41
37
36
32
30
34
40
41
38
42
46
35
45
52
47
48
49
46
68
79
73
68
76
76
74
75
60
58
61
54
39
44
38
31
29
27
29
24
31
35
38
44
45
51
57
53
55
59
79
86
83
79
75
73
64
54
77
87
109
162
168
166
158
160
160
154
150
150
148
144
146
143
142
142
141
254
236
158
111
66
75
134
135
94
76
68
63
54
54
59
57
54
55
51
48
47
43
39
41
42
42
43
46
48
49
49
50
45
45
60
77
74
75
72
69
64
70
63
62
56
49
51
35
34
38
33
33
31
24
26
25
21
26
37
40
48
50
55
55
50
64
74
82
85
76
71
68
62
78
80
108
180
171
155
160
154
154
152
151
150
146
145
149
142
144
143
139
254
233
150
108
78
77
140
115
80
67
62
64
61
64
71
72
79
78
75
73
70
63
57
56
44
42
40
41
43
44
46
47
47
54
68
74
67
64
62
60
51
47
45
42
45
48
42
33
36
37
32
35
37
32
30
28
29
26
28
31
39
44
55
62
56
60
64
68
80
77
75
63
63
81
74
109
176
158
162
159
154
154
150
148
149
148
144
142
142
141
140
139
254
238
152
100
68
110
136
90
68
61
61
70
73
78
84
85
91
96
99
93
88
84
74
59
50
46
44
43
43
44
44
43
52
60
70
72
68
63
64
64
63
60
55
41
36
37
35
33
31
34
32
34
36
34
36
38
36
34
36
35
38
38
51
60
58
54
57
59
76
81
81
61
61
73
80
104
172
161
159
158
156
156
151
145
147
148
146
144
145
143
141
141
254
243
154
88
62
146
132
82
64
59
65
81
90
94
96
97
97
97
100
98
95
96
90
78
65
57
48
42
40
41
42
43
53
57
60
65
78
84
93
101
92
98
82
63
46
37
38
31
31
33
33
34
37
39
45
53
58
54
53
49
51
49
54
54
54
52
56
59
69
81
83
63
51
74
74
87
166
162
160
156
150
154
153
149
148
146
143
143
145
143
141
139
254
233
126
88
74
169
127
93
73
68
81
101
104
99
95
92
91
82
83
90
92
94
96
96
76
64
51
41
38
39
44
47
45
65
77
88
100
105
111
114
106
105
92
81
68
49
37
27
39
38
38
41
48
57
64
72
81
86
89
83
80
72
68
61
58
56
55
56
55
76
81
69
47
71
70
61
151
166
153
158
151
152
150
147
146
144
142
145
144
146
145
143
254
185
128
59
122
158
127
94
82
76
95
118
114
99
91
86
88
88
89
90
85
75
61
50
48
45
42
39
38
37
35
34
41
72
85
89
87
95
104
105
107
92
86
80
73
53
27
30
36
38
44
49
60
73
83
95
81
89
97
96
101
102
101
94
74
65
56
54
46
70
78
76
43
75
58
66
150
156
161
153
155
153
150
149
151
150
147
147
150
145
132
118
251
150
131
56
153
148
118
92
75
68
95
124
113
91
84
79
69
63
49
40
37
36
35
35
34
36
40
45
47
44
39
36
47
76
86
99
93
101
105
106
103
87
81
75
69
51
27
36
33
37
45
47
55
67
78
92
93
88
83
81
93
99
99
92
87
76
66
58
51
66
75
80
50
59
68
91
154
157
158
154
150
154
153
152
153
148
140
134
117
119
121
121
248
143
120
77
169
135
116
93
76
67
96
124
104
74
66
60
47
32
21
26
29
20
22
37
40
37
35
34
35
37
41
43
63
77
79
101
98
104
104
105
97
90
78
75
72
55
40
38
39
36
39
38
43
51
57
67
79
84
91
90
89
86
89
91
89
80
77
68
58
65
72
79
57
45
73
114
157
155
159
157
154
156
149
138
132
130
126
124
122
123
127
131
238
154
113
94
166
141
107
90
81
78
99
115
74
53
32
31
37
25
24
29
23
24
11
35
53
38
39
30
32
40
49
57
78
83
85
95
107
105
102
103
98
91
75
82
73
67
58
48
37
31
32
34
30
32
35
31
39
59
68
79
79
75
76
84
82
86
85
70
65
65
66
81
56
49
69
118
167
158
156
153
145
143
136
128
121
119
123
131
139
140
143
144
241
163
98
112
167
126
103
88
93
90
111
77
31
28
11
35
52
52
35
19
16
21
20
44
54
45
47
53
58
66
69
76
86
86
88
107
109
99
107
101
97
93
83
86
86
75
68
54
22
23
16
28
25
12
15
10
17
11
19
30
54
63
66
76
80
79
84
75
65
65
70
82
62
39
67
117
160
157
151
133
119
120
122
130
142
148
147
147
147
147
147
146
244
152
92
138
153
119
99
90
94
89
76
52
48
61
53
49
52
46
46
47
41
48
64
68
49
48
54
70
71
69
69
79
92
87
97
115
111
108
118
107
115
95
76
83
85
73
74
76
60
39
30
33
30
16
8
23
21
10
14
14
19
23
39
62
73
72
74
64
62
71
75
82
63
48
77
108
123
115
123
135
147
149
149
150
155
155
150
146
152
151
148
147
190
134
109
156
132
110
101
100
103
92
76
67
78
89
68
51
46
44
47
48
51
47
48
50
62
71
73
76
69
71
81
90
90
84
104
107
106
120
117
106
109
90
72
94
95
82
71
74
72
62
62
44
36
36
16
6
7
6
7
29
33
25
20
18
39
60
74
64
59
72
75
84
67
48
77
128
150
151
151
155
153
158
157
153
152
153
153
153
156
155
152
150
116
122
119
156
128
110
105
100
95
93
89
89
86
88
76
67
63
58
63
53
59
66
71
73
68
78
81
72
72
80
92
92
88
92
108
102
105
120
112
106
101
90
71
88
95
92
80
77
75
78
72
58
48
53
51
31
31
36
37
49
40
28
22
16
19
43
71
74
63
76
77
78
72
53
99
167
161
160
161
157
160
162
160
157
159
160
157
154
157
156
154
153
90
100
128
159
132
118
107
105
99
97
92
94
87
89
83
72
76
65
79
75
69
76
86
89
81
72
76
78
83
85
95
94
85
101
106
105
111
112
112
116
97
85
71
86
101
92
84
78
74
73
78
79
69
64
60
55
45
45
53
46
44
41
35
36
42
37
56
72
62
78
83
77
83
50
100
179
172
166
161
162
162
163
160
158
160
160
156
154
157
156
155
153
75
84
147
164
125
114
109
113
105
95
101
93
90
95
81
80
80
86
89
90
92
83
80
90
84
67
74
80
79
84
92
97
85
100
99
103
112
108
109
118
100
85
72
88
102
88
81
82
78
83
87
80
80
79
66
62
50
52
59
50
55
57
57
63
71
57
62
73
65
79
81
87
85
40
81
138
149
173
165
163
166
167
165
162
161
159
159
161
161
159
158
156
46
87
145
155
123
113
116
103
104
109
100
101
104
89
95
86
82
88
86
85
80
77
84
75
59
68
92
92
79
96
97
91
96
102
104
101
112
112
104
114
94
89
75
92
99
95
81
80
73
85
71
77
94
89
84
79
64
75
68
74
78
79
75
72
88
80
70
78
88
94
76
83
94
35
61
58
63
145
177
168
164
164
163
163
164
162
161
163
160
159
157
155
64
69
154
158
115
114
99
110
112
112
106
104
101
107
99
94
91
79
82
75
67
70
56
63
76
92
94
83
99
96
93
98
93
99
99
100
104
114
121
102
93
92
77
86
89
84
80
80
80
87
87
68
77
86
97
90
96
89
75
86
86
91
88
95
82
74
95
91
90
90
89
80
93
35
61
74
68
45
181
174
168
167
166
165
166
166
163
158
159
160
160
159
77
63
149
161
110
109
107
104
107
106
108
110
97
101
105
101
97
94
90
86
84
79
79
85
97
97
88
95
92
98
98
93
99
106
95
101
95
131
118
110
105
91
72
78
91
90
84
79
86
88
93
84
62
64
80
87
95
93
93
92
90
85
80
84
80
84
98
102
93
92
91
84
92
38
56
53
38
31
185
180
171
171
170
167
166
167
165
162
165
164
162
160
88
65
148
159
107
108
113
102
102
105
104
105
105
105
101
105
98
97
97
91
94
85
89
98
98
97
91
97
98
94
100
94
106
104
94
102
105
128
117
117
105
91
82
78
90
89
86
86
85
94
100
95
75
61
62
72
83
96
83
89
88
78
93
89
89
100
103
107
94
90
86
82
85
36
54
42
34
37
197
174
172
174
172
169
166
166
166
164
164
162
160
158
91
72
151
149
109
109
107
104
98
106
103
103
111
108
99
103
101
97
103
98
99
95
90
104
98
97
93
91
94
93
102
98
102
103
97
104
111
106
105
109
104
88
83
78
86
90
87
88
83
95
105
101
98
79
68
64
73
81
80
87
85
90
89
92
97
103
101
103
93
93
86
87
83
32
59
42
35
82
203
174
172
174
173
170
167
167
166
165
164
163
161
160
94
72
145
142
109
108
96
100
97
101
106
105
104
104
104
98
103
99
103
103
101
101
93
103
102
94
92
89
82
99
97
88
99
108
98
107
104
107
98
103
102
87
80
74
75
85
81
90
92
90
100
104
103
98
91
72
66
66
75
80
87
98
94
103
109
108
107
98
91
92
83
89
67
31
73
47
24
128
192
176
174
175
174
171
169
170
168
165
165
164
163
163
98
59
129
140
110
104
90
94
95
98
99
95
99
101
102
97
101
102
96
104
101
99
99
99
98
92
86
69
78
92
87
88
114
103
95
104
116
132
112
118
98
87
81
78
74
82
76
81
80
92
101
109
95
97
95
98
95
92
92
84
92
92
102
108
115
110
114
98
91
87
79
84
48
47
83
46
23
135
192
175
175
175
173
171
170
171
168
165
164
164
163
163
97
57
117
143
112
101
90
92
91
93
91
87
97
99
99
100
104
104
101
107
100
97
103
98
94
89
72
47
86
86
90
109
117
94
92
97
121
132
122
128
100
84
78
80
84
88
76
65
75
87
88
100
103
109
96
97
108
102
115
98
105
108
105
112
103
100
100
92
88
85
83
84
50
65
71
43
32
135
196
178
176
176
174
171
170
170
168
165
166
166
166
165
96
69
117
146
116
99
89
93
88
86
95
95
93
94
106
104
107
101
111
106
99
99
101
96
89
81
61
60
101
102
101
114
97
95
93
90
99
106
112
117
97
84
83
80
85
83
76
64
63
78
98
103
97
100
104
99
98
108
107
105
106
105
102
93
96
92
85
86
84
82
81
76
57
64
59
54
45
160
185
178
178
178
176
172
170
171
170
167
167
166
165
163
97
68
120
145
113
103
89
96
84
88
101
96
96
96
101
108
107
110
99
101
101
97
92
96
84
74
54
95
105
105
110
115
95
91
89
88
87
89
95
103
103
87
89
80
86
87
82
68
57
75
92
105
104
99
103
100
99
105
100
104
106
95
91
93
87
81
82
86
83
77
77
78
61
51
63
55
66
179
185
175
178
176
177
175
173
173
169
169
169
170
168
164
95
72
117
138
107
99
94
93
85
91
93
91
100
105
104
107
110
106
101
100
99
93
84
89
74
61
65
109
110
114
108
110
93
92
82
82
86
85
91
98
95
91
86
82
88
88
95
79
57
68
84
91
104
101
99
103
105
100
100
102
98
94
80
82
79
84
86
81
75
78
80
76
59
57
65
55
100
181
184
178
178
176
177
174
173
172
168
168
170
169
167
165
88
76
100
141
107
99
101
90
86
96
91
93
104
110
105
102
108
98
102
100
97
87
77
80
70
46
88
101
112
96
104
97
88
83
81
84
87
86
87
93
77
81
80
77
82
82
94
92
61
57
80
83
95
95
94
105
106
100
103
101
94
95
84
79
78
81
83
79
75
76
78
75
61
61
62
59
147
180
174
181
178
176
177
175
173
173
170
170
171
169
168
167
103
75
93
132
112
103
93
99
87
99
96
102
104
106
101
97
100
94
100
99
95
82
76
73
61
48
88
101
90
83
80
82
89
70
72
76
79
82
77
77
73
62
66
68
81
84
83
88
70
50
71
83
83
87
93
98
100
107
104
100
98
95
96
85
81
77
77
76
76
78
77
72
58
67
64
91
149
162
181
182
178
176
178
175
175
176
173
173
171
169
169
170
191
59
82
133
123
105
89
96
92
98
98
106
98
98
100
95
95
97
97
96
91
77
77
68
56
63
74
92
61
53
28
29
86
81
71
69
75
78
73
66
65
59
62
62
68
70
72
84
75
52
55
78
79
84
89
90
94
103
102
96
105
97
96
87
79
78
73
69
71
79
79
71
66
78
54
104
147
170
186
176
179
178
178
176
175
177
174
174
171
169
168
170
204
133
116
128
116
109
91
97
94
94
96
101
93
96
102
97
95
101
91
92
86
72
75
65
58
67
72
74
65
45
28
18
51
86
70
63
70
62
66
64
69
52
29
31
47
61
70
65
71
65
48
66
75
79
81
90
91
90
96
92
107
99
87
88
82
77
73
70
71
75
78
78
77
62
76
100
149
172
177
184
181
180
180
176
175
176
173
173
172
170
169
169
178
180
135
125
119
111
99
92
93
93
99
97
96
99
100
96
93
98
86
86
81
70
67
64
68
80
69
63
56
48
38
32
38
76
74
71
71
59
65
66
58
41
19
18
27
44
61
61
74
79
57
58
68
74
77
87
88
87
91
92
96
97
86
88
86
77
74
76
75
73
75
79
84
50
92
107
157
176
182
177
182
181
181
176
175
177
174
173
172
172
170
167
152
174
143
103
129
111
97
95
89
94
105
99
100
100
96
93
89
90
81
83
81
71
61
63
72
85
70
58
49
52
50
50
56
58
69
71
64
61
58
58
50
34
30
29
28
41
50
59
87
87
66
53
61
72
79
78
85
95
90
93
83
90
90
84
83
81
77
74
74
77
75
67
52
92
93
115
166
176
181
179
182
182
181
177
176
178
175
174
172
173
171
167
140
147
138
91
134
113
98
98
92
87
97
107
98
91
92
93
93
88
85
85
75
71
61
65
76
81
78
64
53
48
40
31
38
51
57
61
52
53
58
63
53
46
32
29
30
36
57
71
89
88
86
55
57
69
77
76
81
89
89
90
90
90
88
83
67
79
78
72
67
77
82
77
55
216
68
146
172
181
184
183
181
182
182
180
177
176
175
176
173
173
170
167
133
136
158
106
94
120
101
91
95
99
102
101
92
90
93
86
86
81
81
80
72
65
63
71
79
86
85
73
64
62
58
51
61
63
59
55
53
54
65
71
71
63
50
45
47
55
72
84
91
90
85
64
56
66
72
77
74
79
84
84
84
85
87
76
84
73
77
70
81
73
79
75
133
81
130
169
186
175
187
183
181
181
181
179
177
175
175
174
173
172
170
168
148
162
178
178
127
107
101
95
97
101
99
99
91
86
87
83
79
74
77
75
69
63
67
79
81
87
86
79
73
72
70
64
69
66
61
57
60
56
63
66
73
73
70
66
67
75
79
87
94
91
81
74
58
62
67
78
75
75
83
85
85
83
90
77
79
73
75
75
70
67
85
89
104
119
168
177
176
187
192
184
184
183
181
180
179
177
175
174
172
171
170
167
154
164
175
189
175
102
109
103
98
99
101
97
93
90
86
82
78
74
77
70
68
65
74
85
82
86
86
82
80
80
78
73
74
71
64
62
66
57
56
58
77
79
81
74
77
84
85
93
94
89
79
81
65
60
64
75
79
74
80
82
86
78
85
78
75
71
75
76
75
70
74
91
124
155
183
186
184
186
186
190
186
184
182
180
180
178
176
174
175
175
173
171
157
165
180
180
202
106
110
104
94
98
103
90
87
95
84
75
79
76
77
67
67
71
77
82
79
80
80
79
81
84
84
80
89
86
70
67
65
59
60
68
77
82
81
75
80
89
87
92
92
84
77
80
71
61
63
71
75
78
79
75
84
76
79
77
76
72
69
75
77
69
84
132
168
182
183
191
189
192
185
184
185
183
181
180
179
178
176
174
176
175
173
170
156
173
174
181
205
140
93
107
97
92
97
87
84
90
81
74
78
77
75
66
68
74
78
78
79
78
77
76
79
84
85
84
91
90
75
72
68
64
63
74
76
80
77
72
81
89
84
84
85
79
75
73
72
62
59
64
70
81
78
69
79
77
78
76
70
74
74
76
67
68
158
184
189
189
194
189
188
189
187
185
186
183
181
180
180
178
177
174
173
173
170
168
165
178
186
191
201
189
93
96
102
94
92
94
88
85
84
78
73
73
70
67
69
78
79
78
82
83
82
80
81
83
85
86
82
86
76
72
71
65
63
69
80
86
76
71
78
82
84
87
80
78
77
67
70
64
56
62
64
72
71
69
73
71
72
73
73
76
83
73
60
118
218
190
190
199
189
189
191
189
186
187
186
184
182
181
180
179
177
175
175
174
173
170
141
137
138
136
134
132
111
102
98
97
90
91
83
78
85
70
68
68
67
69
70
81
80
81
78
81
83
82
79
78
80
83
85
85
73
64
68
60
61
66
72
86
81
77
79
76
79
83
79
82
80
67
68
68
56
63
67
67
68
76
72
67
70
74
71
77
74
75
32
194
211
198
198
194
197
194
191
188
190
186
185
183
181
180
179
178
177
175
173
172
170
168
113
119
118
119
117
121
116
109
98
92
92
95
82
80
77
70
72
69
70
72
72
78
81
78
78
80
79
71
77
80
73
87
87
75
69
69
61
59
57
64
72
78
82
72
84
71
75
74
82
73
74
76
69
64
54
59
65
68
68
66
75
69
68
72
72
71
76
74
25
238
194
197
195
196
195
193
191
190
188
186
186
184
181
180
179
179
177
175
175
174
172
170
110
117
117
122
118
121
121
113
104
98
91
90
81
78
74
73
74
68
67
71
73
75
77
79
74
75
69
67
74
73
73
85
86
79
78
77
66
62
59
64
80
83
82
71
79
69
72
70
73
70
66
72
69
65
60
61
66
70
68
70
67
70
67
70
78
69
70
67
57
245
196
195
196
196
195
192
190
189
187
185
186
184
181
180
179
178
177
175
176
174
172
170
118
124
126
129
123
119
123
109
108
101
90
88
82
77
70
72
70
68
67
70
73
74
72
73
74
74
66
69
72
69
76
87
83
89
100
103
84
71
68
79
95
96
86
73
74
67
68
66
56
64
65
75
70
63
63
63
66
68
69
73
67
72
74
74
76
71
79
43
127
229
195
200
196
195
194
191
189
188
187
186
186
184
182
180
179
178
177
176
175
174
172
170
116
121
125
129
126
119
128
109
107
99
90
91
85
78
70
68
66
72
72
71
75
77
69
65
59
64
67
70
69
68
79
94
93
96
109
116
99
83
79
93
102
103
93
81
76
73
71
67
50
59
64
74
70
66
65
65
66
68
73
70
74
74
80
76
79
71
75
28
195
213
198
196
195
195
193
190
189
189
188
187
185
184
182
180
178
177
177
176
173
173
172
171
115
120
122
127
127
122
131
111
106
94
90
94
83
79
74
67
70
76
76
74
77
77
69
63
57
59
69
69
71
80
86
100
82
78
84
97
104
108
104
106
94
96
85
81
78
75
68
58
60
57
59
65
70
75
68
66
66
72
74
69
78
75
74
73
77
73
60
60
217
205
200
194
196
195
193
191
189
189
188
187
185
184
182
180
178
177
176
176
173
172
171
170
119
123
123
127
126
125
129
113
104
92
89
92
80
80
79
71
79
76
74
76
75
70
63
62
55
48
61
70
80
84
67
57
54
50
54
65
79
94
84
71
55
54
51
59
69
72
66
55
56
52
58
66
71
78
71
71
71
79
75
76
79
80
72
76
68
76
49
110
217
202
195
199
197
196
194
191
190
189
187
185
184
183
181
179
178
177
176
175
173
172
171
170
113
120
120
123
121
125
127
119
99
94
90
90
81
82
79
75
78
73
72
76
72
64
57
56
54
38
38
44
49
51
39
27
31
35
44
54
61
72
61
47
39
36
33
38
44
45
46
38
41
47
57
70
72
74
73
78
78
81
78
80
79
80
76
80
70
73
47
150
218
205
194
196
196
195
193
191
190
189
187
184
184
182
180
178
178
177
177
175
173
172
171
169
114
123
123
124
119
125
125
123
94
96
92
90
85
84
78
77
75
72
75
77
72
63
56
47
39
37
41
47
38
28
29
28
25
28
39
48
45
46
36
32
32
27
26
26
28
29
40
42
34
44
49
67
71
72
79
83
82
78
80
77
76
73
78
78
71
63
57
184
208
201
199
193
193
193
192
191
191
190
188
185
184
182
179
178
178
177
176
175
173
172
171
169
114
121
122
124
117
122
125
131
100
95
97
89
84
81
72
81
75
71
74
74
64
55
45
33
37
55
71
68
54
51
53
54
43
30
32
33
41
44
28
29
27
34
42
41
45
47
60
68
50
38
41
57
67
72
80
81
81
83
79
75
69
67
72
73
69
55
88
212
205
198
197
194
196
195
190
192
190
187
190
184
183
181
180
180
179
175
174
174
174
170
172
167
116
122
115
122
115
126
119
124
118
95
91
90
85
77
86
78
76
74
65
62
60
48
41
49
74
76
75
78
83
83
78
77
80
72
63
52
43
40
50
65
68
78
80
73
72
80
78
71
77
63
44
43
62
75
76
75
82
74
69
72
71
66
76
69
70
50
143
227
202
195
195
196
195
193
191
191
189
187
189
185
184
182
180
179
177
175
174
174
173
169
170
164
118
119
118
112
123
118
117
117
128
96
94
86
95
87
80
77
73
68
60
56
53
50
57
69
70
74
73
77
83
80
79
90
93
95
93
96
85
73
83
85
99
98
94
95
84
77
69
71
76
74
60
50
54
62
68
74
82
79
74
70
67
70
72
71
61
66
222
206
201
200
197
198
196
193
193
190
187
187
185
186
184
183
180
176
175
174
173
172
172
168
169
162
114
120
117
115
121
120
114
117
124
103
91
86
99
90
71
73
66
64
60
55
54
58
69
76
71
73
75
82
86
81
79
86
86
91
94
102
93
87
100
101
89
86
82
82
74
68
67
73
72
66
66
65
57
56
64
66
76
76
71
67
68
74
62
69
44
144
226
197
197
195
198
196
196
191
193
189
186
187
184
184
182
182
179
175
173
174
173
171
172
168
169
163
110
118
117
116
123
120
115
117
118
117
84
91
89
80
79
67
60
68
60
55
64
65
63
73
75
73
76
81
81
77
72
68
74
76
83
89
87
87
88
81
73
65
61
62
65
63
67
71
76
67
66
66
60
56
60
61
69
68
65
66
65
65
67
70
46
200
216
196
199
199
202
190
195
189
191
188
186
188
183
183
180
181
179
175
174
174
173
170
170
167
170
164
111
114
119
111
127
117
117
114
114
126
96
91
86
82
75
68
60
61
60
62
70
68
67
74
74
76
80
78
72
69
68
62
61
56
61
62
64
68
61
53
53
48
51
53
59
56
62
66
69
73
68
61
59
57
57
63
66
68
68
69
66
61
75
42
116
235
202
201
197
198
192
200
196
191
190
187
185
185
182
179
179
179
178
176
174
173
171
169
167
165
169
162
112
117
116
118
117
118
113
114
115
123
114
88
87
82
66
65
59
54
60
68
68
70
76
75
71
73
71
67
67
66
60
53
40
39
45
46
42
39
35
38
35
45
51
47
52
62
66
63
62
68
67
62
66
65
58
56
58
63
65
67
72
71
64
23
238
209
198
196
198
207
198
186
195
193
189
188
185
182
183
179
179
178
177
176
175
172
170
169
166
165
168
160
114
118
123
117
116
110
113
115
119
116
117
87
79
69
74
55
54
60
61
62
66
68
69
72
66
72
67
61
63
59
49
47
52
46
39
41
43
38
39
44
46
45
44
53
55
60
57
60
66
66
74
75
69
65
61
52
55
62
63
63
61
67
54
68
208
233
218
210
202
205
192
195
192
192
188
189
186
183
187
183
180
178
176
177
175
171
168
168
167
166
167
159
117
113
117
115
115
109
112
113
114
116
121
93
77
64
63
61
62
62
64
63
69
64
65
70
60
65
60
59
55
44
41
38
43
41
38
40
44
38
34
39
40
43
40
51
56
54
56
57
62
59
73
71
65
71
66
60
53
59
59
59
61
58
58
68
70
83
126
176
211
220
205
193
192
188
192
185
188
185
181
182
178
178
175
176
171
172
170
171
166
163
164
161
113
110
115
114
114
110
112
111
110
118
117
103
75
75
64
59
59
65
65
67
68
66
62
62
64
53
58
56
42
50
56
43
49
49
48
51
55
53
52
57
57
57
50
45
51
57
62
61
59
60
68
69
65
67
66
61
51
54
55
56
61
57
58
66
57
61
77
94
114
143
172
199
209
198
190
186
185
182
183
178
177
176
174
175
172
170
167
166
168
162
161
157
108
108
113
112
112
111
112
107
111
116
114
105
83
72
67
55
61
62
61
70
69
66
59
65
70
63
65
57
53
61
61
58
68
68
67
68
69
69
69
75
75
69
62
58
61
62
62
67
60
63
63
67
66
63
66
63
55
52
52
52
60
56
60
67
71
68
64
57
61
80
110
141
161
173
181
193
189
187
189
180
180
175
172
170
171
168
167
165
163
159
161
158
106
110
114
112
111
112
113
107
108
115
112
105
94
71
68
66
69
67
62
67
66
61
58
69
72
76
71
67
77
74
65
75
79
77
76
77
76
74
77
82
82
81
70
83
67
77
59
70
67
67
63
64
65
63
60
62
60
52
50
49
59
56
63
69
68
72
76
74
71
66
58
58
78
118
154
177
178
182
185
185
179
178
177
170
170
166
167
165
164
163
164
156
109
114
115
113
109
113
112
107
119
102
128
133
76
72
70
69
62
67
66
58
62
65
70
74
69
72
72
78
82
79
81
81
77
74
75
79
77
75
78
84
82
81
86
76
80
76
70
68
70
65
64
60
64
63
53
59
56
49
47
49
57
57
64
70
66
69
74
73
75
78
76
76
76
67
53
64
103
151
170
188
185
182
177
166
168
170
170
164
158
157
161
155
108
112
113
111
105
109
108
105
103
110
174
104
79
72
75
60
56
60
63
58
67
69
75
79
74
76
77
80
75
78
87
78
79
77
80
83
79
77
79
82
79
83
78
84
76
80
68
72
70
63
64
58
60
61
49
54
45
44
46
51
54
57
63
70
73
72
77
75
72
75
75
75
75
80
82
75
68
64
66
90
130
157
184
189
183
173
168
164
164
160
160
153
106
111
112
111
103
105
106
103
107
118
162
119
76
72
68
72
64
62
60
63
71
69
69
76
81
82
80
76
72
74
77
75
82
81
82
80
75
75
78
76
78
77
73
81
80
74
68
71
67
63
62
57
56
53
45
45
37
43
46
55
51
59
63
70
78
71
75
75
72
76
78
74
75
76
81
81
77
69
71
78
78
84
95
112
131
152
167
173
169
164
161
150
106
112
113
113
104
106
105
105
126
147
157
126
75
68
73
63
63
63
56
62
69
77
74
78
83
75
79
76
70
72
71
73
76
76
75
69
64
70
75
73
76
76
72
71
75
71
71
65
64
65
60
56
51
44
40
35
36
45
49
58
50
60
64
72
77
68
73
76
69
75
78
72
75
75
81
82
77
72
83
73
73
71
67
76
84
100
111
120
137
145
158
158
107
110
115
110
119
99
119
128
148
158
155
129
76
73
76
63
59
62
57
59
68
75
82
80
77
78
74
73
67
69
69
72
74
67
67
65
57
58
67
71
69
73
70
67
67
75
65
61
63
62
64
56
38
39
37
42
46
52
55
51
58
62
68
70
72
67
72
75
73
66
75
77
75
79
79
82
79
80
77
78
83
81
79
72
71
68
61
73
88
101
121
137
110
114
112
99
136
110
140
152
154
136
149
137
92
68
66
73
59
65
55
56
59
65
74
88
75
78
76
71
66
68
66
64
71
62
59
60
55
56
63
66
60
64
65
61
63
65
61
59
58
65
61
47
36
45
50
44
54
56
56
53
59
60
66
72
70
66
75
69
79
67
74
77
78
77
80
83
84
80
79
79
84
78
74
77
78
75
74
73
63
60
62
70
106
110
109
101
127
159
154
149
137
124
144
133
91
71
67
63
62
68
54
55
52
54
60
85
72
67
69
71
70
61
57
58
56
59
59
48
38
47
60
62
60
58
58
50
54
55
59
64
61
58
44
45
50
41
48
58
54
53
54
53
59
59
66
73
70
70
71
72
76
75
68
77
76
70
76
80
82
75
77
75
79
79
75
82
80
77
80
73
78
78
77
74
107
107
118
127
166
144
142
134
130
122
132
142
96
73
69
62
62
63
54
57
53
51
53
69
69
60
61
64
66
55
57
60
52
55
50
37
33
48
59
57
56
56
57
52
56
56
55
57
52
47
41
41
49
47
55
58
47
48
51
52
59
60
67
72
71
71
70
75
72
81
66
73
76
71
77
81
80
77
79
75
79
81
80
82
79
76
77
74
79
78
77
74
93
128
148
160
148
133
132
117
131
119
126
142
104
75
67
65
56
53
56
59
56
54
54
57
64
61
59
50
52
52
57
55
53
48
44
41
41
45
51
55
52
54
53
51
52
56
48
46
41
36
45
41
43
53
59
50
46
48
52
52
58
61
67
67
73
67
76
73
73
78
70
67
76
75
79
83
77
79
80
75
82
82
81
77
82
82
74
77
80
77
73
72
122
152
163
151
129
123
123
119
125
118
130
122
100
81
66
63
52
48
57
59
54
53
54
52
61
62
62
56
54
51
51
50
44
45
45
45
40
39
41
45
47
48
45
44
43
49
40
39
40
39
43
42
52
49
39
50
47
47
52
51
55
59
66
65
72
69
75
76
71
78
72
67
74
78
79
81
73
77
76
72
77
79
80
76
81
81
72
81
77
78
78
76
153
176
143
128
128
111
108
118
121
122
125
109
96
84
66
66
56
51
54
55
50
51
48
51
59
62
66
70
65
57
53
55
49
48
43
40
41
41
37
33
38
41
45
45
45
43
36
37
40
49
41
40
52
45
34
49
47
44
49
51
55
59
67
66
67
74
72
76
69
79
73
71
73
77
80
80
76
75
74
72
68
72
75
77
78
76
73
79
79
77
76
77
153
133
126
129
105
103
103
112
110
131
117
99
87
86
71
62
60
54
48
51
48
52
43
52
51
59
62
65
58
59
57
59
59
54
48
45
42
36
36
42
40
40
46
43
44
39
40
48
45
41
37
49
44
42
47
50
48
42
49
54
58
59
67
69
63
72
72
67
74
73
74
71
67
69
74
74
76
69
69
70
70
66
66
77
80
75
77
70
76
73
71
72
