P2
# CREATOR: GIMP PNM Filter Version 1.1
92 112
255
219
218
218
217
218
219
219
222
224
223
225
226
225
224
227
228
226
226
225
227
229
227
228
228
228
227
230
226
227
227
225
224
223
223
222
221
222
219
218
217
215
214
212
213
212
209
210
208
207
205
204
203
200
198
198
195
192
192
189
190
190
186
187
186
181
177
181
179
178
176
176
172
171
171
166
168
164
162
162
161
158
157
155
154
154
153
149
151
148
145
142
142
221
222
222
219
220
219
219
222
224
225
225
225
226
227
226
229
228
229
229
229
230
231
228
231
230
230
229
229
229
227
229
227
226
224
224
223
222
224
220
220
218
217
215
216
214
211
212
209
209
207
209
202
203
202
201
200
198
195
193
191
192
188
188
186
182
181
182
182
177
178
178
175
172
171
169
166
163
163
163
161
160
159
157
152
157
153
152
149
150
146
143
144
223
225
222
220
220
220
220
223
222
224
225
227
229
230
230
229
227
230
231
231
232
230
231
232
230
230
231
229
229
232
230
227
227
227
227
227
222
223
222
222
222
219
218
217
217
212
212
211
210
209
210
206
208
205
203
200
197
195
194
192
192
190
190
188
186
182
180
183
178
179
177
175
175
172
170
167
167
167
164
160
156
161
157
155
155
154
152
149
149
149
148
143
225
225
225
223
222
222
221
222
223
224
227
229
229
226
229
231
230
232
232
232
232
231
232
233
233
231
233
229
231
230
231
230
229
229
226
226
225
225
222
224
222
221
221
218
216
211
214
212
212
210
210
207
207
204
204
203
200
197
194
195
196
191
189
192
186
184
185
182
178
178
178
176
177
174
169
172
169
166
162
160
159
156
156
156
154
151
149
150
146
147
145
145
227
228
227
226
225
224
224
223
224
224
227
228
230
231
230
232
231
234
233
235
234
234
233
234
234
233
233
233
231
232
233
232
229
229
228
226
225
221
221
225
223
222
219
220
217
212
215
214
211
212
211
208
207
206
203
205
201
199
199
196
196
192
190
189
186
185
183
183
181
180
179
176
177
172
171
170
172
167
168
162
160
157
156
155
155
153
150
148
149
146
143
142
230
229
230
229
227
228
226
226
227
227
227
229
228
231
233
231
233
234
236
235
237
235
235
235
235
234
235
235
234
233
232
233
232
229
230
218
216
211
212
225
223
224
222
218
218
215
215
214
215
213
213
210
209
206
206
204
203
202
200
196
194
195
192
192
189
185
186
184
184
180
180
177
177
173
172
172
168
166
164
164
162
162
157
154
152
151
150
150
149
148
146
143
234
234
232
233
231
231
228
229
228
227
228
229
228
230
233
231
234
237
235
237
238
238
236
237
236
236
237
234
233
234
230
234
234
232
231
229
198
203
191
218
227
222
217
216
217
217
217
219
216
214
212
211
211
209
207
204
203
204
198
197
198
194
194
193
189
189
189
186
185
185
183
178
178
174
175
172
170
169
164
162
161
159
156
155
154
152
152
150
148
145
147
141
234
237
237
235
235
234
233
232
231
231
230
230
229
232
235
235
237
235
238
239
240
237
238
238
238
238
239
238
232
233
226
223
233
234
233
217
178
139
110
178
217
199
215
223
220
222
222
212
217
216
216
213
211
211
205
207
205
196
200
199
199
199
196
193
191
189
190
185
183
184
182
179
178
175
174
173
171
169
165
166
162
160
159
155
153
153
149
151
149
146
147
145
236
237
239
238
238
239
238
236
235
232
233
230
232
232
235
233
235
237
238
239
240
239
240
240
238
240
240
240
230
224
194
202
224
229
221
200
176
124
112
112
142
124
115
189
220
227
226
219
221
217
217
215
211
213
207
210
200
206
201
199
199
199
196
194
193
192
190
188
186
187
183
183
179
178
174
174
172
168
168
166
165
160
158
156
156
157
152
151
148
148
145
143
237
238
239
239
241
241
239
239
238
235
236
235
234
233
235
235
237
236
237
241
242
241
241
241
244
242
245
230
221
213
147
179
218
200
212
206
182
135
109
124
132
168
106
99
203
194
175
170
201
210
217
210
210
213
211
201
201
205
205
201
201
199
197
195
193
191
192
189
187
186
183
179
180
177
174
175
173
168
169
165
163
160
158
157
155
153
151
152
147
148
147
144
238
241
242
242
241
242
241
241
240
240
239
236
236
234
238
235
237
236
240
242
239
239
242
248
226
191
158
143
123
136
118
118
153
173
174
175
154
108
83
109
128
151
101
71
91
123
88
57
73
137
169
209
213
213
204
204
208
207
203
204
201
200
199
198
195
194
193
190
187
190
183
182
179
178
177
175
174
170
168
166
163
163
160
159
155
151
153
152
148
147
147
142
239
241
241
241
244
242
244
244
243
242
241
239
239
239
236
237
237
236
238
240
229
225
215
171
152
119
129
95
96
80
75
74
75
82
124
169
126
92
77
87
111
145
105
67
73
114
97
78
59
65
88
137
199
212
211
211
208
207
206
205
203
201
201
196
197
195
193
190
189
187
186
184
182
181
177
177
175
173
170
166
166
163
161
160
154
156
149
152
150
150
145
142
241
243
243
243
243
244
245
246
245
243
244
244
242
240
241
242
239
231
236
234
209
145
98
157
106
156
113
105
74
67
63
60
59
65
103
149
120
76
72
66
71
81
89
53
99
127
104
95
73
69
72
93
82
113
188
212
214
211
205
205
202
202
199
196
196
194
192
191
191
188
186
186
183
180
180
177
176
175
169
165
165
162
163
159
159
154
151
154
150
150
147
145
241
243
245
244
244
245
246
245
246
246
245
245
244
244
242
243
244
243
221
240
162
118
130
143
103
125
115
99
74
71
60
57
60
63
63
93
86
77
63
66
69
69
60
61
75
144
91
77
68
74
68
57
62
56
70
119
160
217
212
209
207
204
204
199
193
195
194
193
191
194
186
186
184
182
180
177
177
171
172
168
168
164
162
160
156
155
154
153
149
152
144
145
244
245
245
247
247
247
247
246
249
247
249
247
246
246
247
244
244
246
228
190
175
108
106
87
88
109
97
95
73
71
77
50
73
57
54
57
67
96
55
50
55
66
58
62
72
103
83
60
65
72
50
64
73
79
76
62
67
91
126
166
190
200
193
195
199
198
198
191
191
194
189
187
186
183
180
179
176
174
170
168
167
165
163
158
158
155
152
152
151
145
150
143
243
244
246
247
248
248
247
248
248
248
247
249
247
246
245
246
245
239
220
154
133
73
94
73
90
98
98
93
76
61
72
74
51
58
56
59
59
80
60
39
55
63
60
56
81
67
65
54
49
44
58
69
74
63
76
76
72
64
71
68
110
193
200
200
197
197
195
195
196
192
191
188
187
186
181
179
176
177
176
171
169
167
163
163
160
158
156
150
150
149
147
147
244
246
248
249
249
249
248
248
249
250
248
248
249
249
246
239
231
231
164
187
142
84
98
82
80
89
92
91
76
59
59
68
63
54
53
49
51
54
57
37
44
53
53
42
66
55
50
42
40
45
62
60
55
57
58
66
78
82
91
93
68
79
146
192
197
200
201
198
196
195
192
190
189
187
183
181
179
175
174
173
169
168
164
162
160
159
156
154
152
151
149
145
247
247
249
247
249
249
249
249
251
249
249
250
248
247
243
241
244
172
201
191
91
93
78
84
73
71
83
87
74
63
69
54
61
63
51
52
54
53
42
42
35
45
55
40
59
43
38
34
40
38
43
54
48
54
62
59
64
66
69
67
64
72
151
181
200
201
201
198
198
195
194
191
189
186
182
182
178
176
176
172
170
168
164
161
161
158
156
155
154
149
147
145
247
248
249
249
250
249
249
251
250
250
249
252
251
251
249
243
230
192
180
130
123
117
91
76
61
64
72
86
78
69
66
69
60
59
61
56
51
43
46
41
31
33
39
42
49
33
42
44
37
36
42
36
43
62
54
50
56
61
59
54
51
67
111
200
201
198
203
200
198
197
192
188
189
187
182
182
179
177
173
171
170
168
165
161
160
159
157
153
150
149
147
145
247
247
249
248
249
251
250
249
250
249
250
251
250
251
252
253
227
184
169
138
108
99
84
68
63
59
49
51
64
65
58
58
67
59
53
48
50
48
46
42
41
31
28
34
38
40
28
33
40
35
35
34
41
34
44
48
56
58
58
56
58
59
48
75
170
203
202
205
199
197
194
191
190
189
185
183
179
177
175
173
169
168
164
162
161
158
158
152
152
150
151
146
248
249
251
251
249
249
250
252
250
251
251
251
250
250
247
245
248
230
128
126
105
73
67
63
54
64
52
44
47
62
64
53
60
63
59
55
50
46
47
41
45
36
33
34
31
31
26
26
33
45
37
27
32
36
50
46
47
51
50
62
63
72
78
78
55
143
182
189
198
198
197
194
190
188
186
185
180
176
176
172
167
169
164
163
158
157
157
154
152
147
150
146
248
249
250
250
250
250
251
250
251
250
250
252
252
250
251
252
246
207
98
76
74
85
75
67
74
62
67
73
67
69
67
58
49
56
56
61
57
49
53
50
47
44
40
38
41
36
32
27
32
38
40
35
37
41
34
42
37
46
40
43
43
50
60
64
51
82
175
192
193
204
195
194
192
189
184
184
182
177
174
174
171
170
166
161
161
158
155
153
153
150
146
145
248
250
250
251
250
251
250
252
252
251
251
252
252
249
247
248
221
179
108
97
77
64
64
90
83
78
78
68
58
55
54
57
64
56
63
56
56
55
57
61
54
53
50
49
50
42
37
30
30
33
32
43
30
33
33
34
38
38
42
41
47
54
58
60
60
62
76
138
183
195
196
195
192
189
187
185
180
180
177
172
172
168
164
162
162
157
157
156
152
150
146
144
248
251
250
250
250
251
251
252
252
252
252
252
252
253
249
209
186
154
113
94
83
75
84
75
72
77
67
60
63
62
61
61
54
68
60
61
63
65
68
63
59
64
56
62
58
53
47
44
46
33
30
35
35
30
30
32
32
34
34
41
45
43
44
46
52
66
97
163
192
198
197
195
193
189
186
184
181
178
175
172
169
167
162
160
159
155
156
153
149
148
147
146
251
250
251
250
249
253
252
253
252
252
252
253
252
240
201
202
145
139
138
109
82
82
65
69
72
67
76
66
59
57
56
57
68
72
71
71
67
71
70
69
66
66
68
65
65
63
65
62
57
48
40
38
35
37
37
34
29
33
35
36
38
47
45
48
53
47
56
111
168
205
198
197
194
188
186
184
182
179
175
172
171
167
164
163
159
157
156
153
149
147
144
143
249
250
251
250
252
253
252
252
253
252
251
252
244
243
218
180
123
126
92
90
86
65
73
68
67
68
57
55
59
62
68
71
72
74
74
74
74
76
78
72
73
76
74
75
74
74
75
72
67
64
60
49
38
33
36
35
36
41
40
39
46
46
47
50
50
48
44
50
128
192
196
195
193
190
186
185
180
177
173
171
172
165
161
160
159
155
153
153
148
145
145
141
249
251
251
253
252
253
252
252
253
253
251
248
243
207
164
118
76
88
78
84
77
66
57
76
66
50
58
68
72
76
77
78
78
74
80
80
79
79
87
82
84
81
82
79
80
80
77
78
76
73
70
64
56
49
41
41
41
46
42
43
45
54
59
55
47
42
51
39
65
178
202
197
194
189
188
183
181
175
174
170
168
165
161
161
159
156
152
150
148
147
144
140
250
250
251
253
252
252
252
252
252
250
252
249
235
134
102
87
81
68
77
85
70
66
75
60
63
62
75
77
83
82
85
84
84
80
82
86
87
84
87
86
86
86
85
81
83
80
82
80
79
79
77
70
66
64
55
43
40
38
44
48
45
44
38
50
59
62
57
52
50
96
179
194
194
191
184
183
179
176
175
172
167
164
163
160
156
153
151
149
146
143
142
140
250
251
252
252
252
253
253
254
253
251
251
253
207
133
100
84
74
71
69
56
70
78
55
66
71
82
86
86
87
86
88
86
83
86
88
87
89
87
87
89
83
87
85
84
89
84
79
84
84
83
78
75
73
73
69
59
51
40
34
38
47
53
55
48
42
50
54
60
57
91
188
196
193
188
183
184
176
176
171
170
165
163
159
155
152
153
149
147
144
144
140
138
249
252
252
252
252
252
253
253
252
252
234
225
181
102
84
67
65
67
63
65
79
66
73
86
86
88
90
90
94
93
93
90
88
90
89
90
94
90
91
93
93
88
91
90
86
87
81
82
84
79
83
81
75
77
74
72
66
54
41
34
40
44
49
51
51
60
61
53
53
69
177
196
194
186
183
180
176
175
172
169
164
162
158
153
152
151
148
146
143
142
138
137
249
251
252
252
252
252
252
252
254
254
202
124
111
80
89
77
80
76
78
76
67
85
95
95
99
93
96
98
96
94
95
92
90
89
91
89
93
89
91
91
97
94
95
90
88
87
86
88
86
86
86
82
82
78
77
74
71
64
60
48
37
34
36
45
39
37
50
57
58
67
134
194
192
187
181
177
176
172
168
166
163
159
157
152
151
149
146
146
143
140
138
138
249
252
253
251
251
253
251
252
253
253
138
87
73
73
69
72
80
69
70
73
89
105
104
103
99
97
96
96
94
94
95
89
88
88
90
90
90
89
92
90
88
94
88
92
87
86
87
89
89
88
86
82
84
83
79
78
75
72
66
60
49
41
42
33
43
38
42
43
60
72
115
185
189
182
182
178
172
171
167
162
160
157
154
148
150
147
148
146
140
141
141
134
250
253
253
251
251
253
252
254
252
203
112
81
66
69
68
74
57
72
83
109
118
115
109
104
101
98
96
95
93
92
92
93
90
88
91
93
90
89
88
90
93
89
90
91
90
87
84
83
86
88
86
84
84
80
78
79
77
75
70
65
60
48
28
44
34
44
41
42
49
55
126
185
188
181
179
176
172
167
166
161
157
153
152
149
146
142
142
142
142
138
134
125
250
253
253
252
252
254
252
235
184
113
89
76
77
75
67
54
86
109
122
125
118
107
106
99
98
96
95
98
93
94
93
90
90
92
91
92
92
92
91
91
93
94
93
90
88
87
87
87
87
85
84
87
80
81
80
81
78
79
74
69
70
63
44
32
45
34
41
39
56
57
65
180
186
179
177
173
171
165
163
157
152
153
148
147
146
143
141
136
127
113
109
113
250
252
253
252
252
254
253
184
82
70
71
73
64
60
59
80
119
131
129
115
108
105
103
98
96
96
95
93
89
97
95
90
92
93
92
92
91
92
95
95
90
87
91
88
90
90
87
86
90
85
83
88
86
85
82
81
79
79
75
73
69
68
62
37
43
52
42
48
34
50
68
145
187
176
174
168
162
161
156
153
150
148
147
148
141
132
114
110
113
124
131
133
250
251
253
254
253
252
247
183
102
133
108
75
63
58
55
100
134
125
120
116
108
106
101
98
101
98
95
94
96
94
96
88
90
86
91
90
92
89
92
93
89
89
87
87
88
83
85
83
85
86
85
80
82
82
81
79
78
77
79
74
73
72
68
59
37
45
46
44
53
42
67
133
174
171
169
164
160
155
155
153
148
143
133
118
114
120
128
135
137
138
140
140
249
252
252
251
252
253
251
238
233
149
103
82
68
56
75
146
135
126
119
113
107
103
102
102
99
98
98
94
93
93
90
90
91
90
91
92
91
93
92
91
90
91
90
89
86
82
84
84
85
87
83
84
83
83
82
78
79
79
79
76
73
71
73
69
48
29
53
49
47
47
44
152
178
166
162
160
155
156
147
135
125
121
124
134
138
140
141
141
145
144
142
143
248
250
251
251
252
253
253
254
138
89
77
74
62
49
123
169
133
123
120
113
99
106
102
99
100
97
98
92
93
93
91
92
94
94
94
93
88
89
94
90
92
92
93
87
89
88
89
86
87
83
84
84
83
81
81
81
77
79
77
78
78
74
73
71
59
37
43
52
53
47
42
132
171
163
158
151
141
130
126
132
138
143
145
145
146
146
144
149
145
147
147
147
247
250
250
251
252
253
254
228
117
82
66
68
54
89
179
174
141
127
117
100
104
104
96
102
100
101
98
98
97
96
92
89
93
95
94
93
92
89
94
91
92
94
93
91
88
89
92
87
88
87
86
83
84
81
81
79
81
79
75
75
73
76
74
72
68
47
35
60
54
52
50
121
162
148
134
132
138
145
150
154
151
152
150
151
151
149
150
149
148
149
149
148
245
248
249
250
250
253
253
226
117
72
80
71
60
135
210
185
135
132
101
108
103
99
98
98
98
98
97
95
96
96
92
93
95
95
95
89
95
93
95
88
90
97
93
93
88
86
86
87
89
84
89
81
84
84
79
81
79
80
77
81
75
74
71
72
67
59
37
44
54
55
51
86
153
146
153
156
158
157
159
158
157
156
156
155
151
154
149
150
151
150
151
148
243
247
249
249
249
251
251
254
124
76
118
71
66
185
234
174
128
113
122
105
99
94
96
94
96
97
94
97
96
96
95
98
99
98
97
90
91
90
93
92
91
94
94
94
86
82
90
91
91
91
86
86
85
85
83
81
80
79
78
75
76
74
72
72
67
62
51
41
48
56
59
78
166
163
165
168
166
166
165
163
160
160
157
158
158
157
152
153
152
152
150
152
231
244
247
246
249
248
252
239
128
131
104
64
75
215
225
157
112
124
121
103
97
94
96
92
92
91
91
95
97
97
97
96
99
98
95
96
96
90
89
94
94
91
95
96
96
92
88
94
87
86
81
86
83
81
85
84
79
77
76
73
74
74
71
72
67
62
49
40
56
53
60
92
173
172
172
172
172
169
167
164
164
164
161
155
152
147
145
146
145
146
149
149
221
223
236
244
246
247
249
243
133
148
103
61
125
224
206
154
128
121
106
97
96
93
96
94
92
90
92
95
95
101
98
102
101
96
96
102
96
91
84
91
98
103
99
102
99
94
89
92
89
87
85
86
85
80
81
84
81
80
76
70
73
72
70
69
66
63
55
40
54
53
58
73
180
178
176
176
174
171
171
169
159
154
152
163
165
167
162
147
137
129
134
141
224
227
224
223
232
242
245
234
163
151
78
84
165
220
172
136
120
101
101
91
93
92
90
92
89
92
91
94
92
97
97
99
101
98
97
100
99
88
80
90
95
98
98
99
98
92
86
88
90
81
83
86
79
80
82
82
80
80
74
72
72
73
70
68
70
64
54
45
63
44
62
49
178
183
179
179
176
173
167
169
172
164
176
168
155
116
136
148
166
169
138
120
214
220
223
225
221
219
230
223
165
114
104
92
185
197
145
118
101
101
89
92
91
87
87
91
93
91
87
89
92
92
90
89
91
90
86
97
99
89
75
87
90
92
90
91
90
89
84
93
86
80
84
88
85
83
83
85
82
80
76
73
74
76
71
72
68
65
52
51
60
56
56
60
164
191
183
182
178
171
185
151
120
125
127
125
134
138
132
131
128
138
178
156
208
212
215
218
221
224
215
184
171
118
78
105
209
154
130
99
89
84
81
82
82
81
83
84
81
79
81
78
79
84
85
88
86
84
83
92
92
88
72
81
89
89
82
83
84
82
81
88
86
84
86
85
87
82
87
83
79
81
80
78
77
76
73
71
72
64
60
51
57
66
67
64
169
189
186
183
184
180
116
124
142
127
131
110
146
150
107
148
143
137
133
169
201
206
206
210
213
215
216
203
188
97
70
136
199
145
104
88
77
69
66
61
64
64
66
66
65
68
70
67
65
70
74
81
81
78
75
88
89
91
74
77
84
82
74
71
74
71
71
77
81
83
84
82
83
84
79
80
79
80
78
79
75
74
74
71
72
66
59
57
56
71
71
68
181
191
187
191
183
112
133
142
145
138
127
117
130
149
119
146
141
114
123
134
199
200
201
203
207
208
205
206
155
84
76
190
196
113
90
72
54
61
58
55
55
52
54
55
54
52
51
57
56
59
66
69
73
69
74
83
87
87
80
71
81
81
65
62
66
60
56
54
58
66
73
70
72
73
73
76
74
75
74
73
72
75
74
72
70
68
62
56
60
78
76
74
195
200
192
208
119
138
146
126
119
158
147
130
123
152
150
148
140
117
130
139
168
211
206
199
201
201
199
186
157
71
104
230
156
89
74
63
63
65
61
56
55
48
42
37
35
36
42
44
45
54
60
63
67
58
76
85
82
82
80
71
74
74
63
51
58
54
46
40
43
47
53
55
57
60
60
62
63
63
67
75
76
75
73
73
71
71
63
61
64
75
73
82
197
192
219
141
135
160
163
140
149
158
149
137
129
153
150
147
146
130
142
141
20
67
153
205
201
197
187
194
125
74
160
222
103
71
64
61
60
62
53
51
45
38
35
34
40
37
38
38
44
50
55
54
56
56
79
81
80
80
79
75
68
68
62
46
47
44
41
39
36
35
38
36
44
48
54
53
59
53
55
66
73
73
75
76
75
70
65
56
67
80
64
88
204
210
202
116
145
133
134
167
159
159
160
138
139
146
110
146
150
148
129
94
40
34
34
57
132
194
197
198
121
77
230
130
81
68
63
58
59
62
64
64
65
62
55
52
45
44
46
45
43
50
49
48
42
69
80
78
75
72
70
65
63
60
57
46
40
39
39
40
36
35
36
31
37
44
46
51
58
58
53
55
63
63
69
73
75
75
67
51
63
78
59
86
206
235
168
134
161
104
140
162
161
159
163
128
103
112
144
144
138
148
131
115
35
39
41
38
32
54
150
205
106
128
203
97
67
58
67
77
80
83
88
91
93
91
86
76
72
61
49
45
45
44
46
46
58
73
72
68
64
64
59
55
49
46
48
48
41
40
39
40
44
42
41
42
43
43
45
45
54
61
61
52
57
60
70
71
75
73
73
53
60
72
60
56
191
249
152
143
172
165
169
164
163
161
136
95
97
150
147
147
150
151
151
149
32
38
38
43
39
36
101
186
95
188
187
89
65
66
96
99
88
92
90
92
95
93
89
87
81
77
67
57
49
49
48
48
58
68
78
84
87
90
89
82
76
59
52
48
44
44
48
48
57
60
65
69
71
72
69
68
66
62
59
55
56
55
62
69
74
74
75
54
53
71
65
68
201
251
148
147
140
134
173
165
164
160
159
123
141
156
153
153
150
154
103
141
34
32
36
33
49
99
172
164
84
205
185
94
72
89
131
108
93
88
89
84
87
90
93
95
84
69
57
53
50
49
46
46
67
81
91
96
101
99
93
87
76
74
66
52
46
51
59
60
68
74
82
86
92
96
91
97
95
85
72
64
57
53
54
67
72
73
78
60
51
67
68
89
203
252
160
143
131
126
173
168
167
162
161
160
156
156
154
152
152
148
106
120
99
75
60
90
102
117
187
148
114
218
169
93
75
91
164
125
87
85
83
84
79
69
58
48
40
43
51
55
55
54
50
44
73
83
86
89
96
96
90
82
76
69
61
44
48
50
51
55
66
80
90
91
88
86
90
95
99
94
84
79
72
61
57
63
69
73
77
65
46
66
64
117
197
243
195
134
166
175
162
170
164
166
160
159
161
154
155
153
152
150
150
145
71
112
113
107
103
131
188
128
130
235
155
90
77
90
154
99
85
74
52
34
24
19
25
18
24
39
39
40
54
63
62
58
73
90
93
96
97
96
86
79
72
70
62
59
62
61
56
51
44
46
58
80
91
95
87
88
86
85
83
80
76
73
65
65
66
73
78
70
47
66
67
120
202
203
245
142
156
153
103
162
168
169
162
159
149
148
157
153
105
126
146
164
28
81
102
108
110
123
178
130
154
221
118
91
88
112
127
70
42
27
39
39
30
25
24
21
32
66
56
51
43
51
58
71
80
91
98
99
98
92
89
79
71
76
66
67
72
55
42
39
36
33
28
26
36
49
74
81
79
80
80
82
81
74
69
63
68
71
81
75
45
60
74
125
206
187
239
214
133
149
149
160
152
135
164
161
144
143
157
156
126
98
163
182
35
95
109
106
111
139
162
116
192
171
110
89
97
106
65
36
35
34
43
51
35
26
28
44
64
62
51
66
74
71
73
82
85
96
102
98
97
89
88
75
78
82
71
66
68
58
50
46
51
44
25
23
25
20
22
29
49
67
75
75
74
75
65
69
72
75
79
81
49
63
82
163
211
200
183
255
205
142
156
168
163
133
166
165
96
104
159
153
143
173
228
122
34
103
113
119
170
98
134
124
216
142
107
93
94
85
69
73
70
58
51
59
67
61
65
66
54
59
71
72
72
71
79
87
86
103
103
100
99
96
91
74
73
83
75
69
70
78
78
65
56
57
35
24
22
25
28
38
41
27
39
62
71
74
67
71
76
75
82
80
56
65
107
205
213
202
193
190
243
221
170
145
148
130
159
157
141
136
153
170
210
241
126
83
46
113
116
150
101
89
121
143
196
140
109
96
94
89
94
94
90
69
65
54
61
45
58
64
72
76
80
78
73
76
85
87
95
100
101
107
98
95
90
68
75
89
79
74
73
69
80
76
72
65
72
57
51
46
56
58
49
43
32
38
57
71
74
74
76
75
82
81
56
79
97
115
150
194
207
191
170
210
232
217
197
189
176
175
178
195
185
188
157
92
96
129
112
116
121
118
56
53
78
160
209
148
105
102
95
90
92
95
89
81
80
77
84
75
83
91
84
81
79
75
82
84
93
90
101
101
102
107
96
93
85
70
76
89
82
79
74
72
80
87
83
79
73
69
61
66
76
66
63
57
58
64
57
67
72
76
81
76
84
87
53
58
60
66
62
77
194
203
193
162
151
164
179
175
192
210
223
210
122
93
101
121
144
153
113
117
123
118
59
54
69
176
191
134
109
102
96
99
92
88
85
86
83
88
92
94
85
85
89
81
72
83
77
87
93
89
103
103
98
98
104
94
78
74
75
92
84
81
77
74
76
82
88
90
91
86
77
73
71
70
78
76
72
86
79
72
81
83
84
82
82
86
58
55
63
71
75
63
117
209
198
194
184
161
144
135
140
135
122
115
125
144
152
157
165
167
114
124
132
125
74
63
72
176
184
123
113
101
100
101
97
94
91
92
89
86
88
85
78
79
73
73
89
85
86
94
90
94
101
99
98
98
98
89
84
71
77
90
81
77
77
79
80
80
86
92
95
90
90
84
91
88
89
88
88
87
77
84
87
86
87
86
80
85
62
50
72
64
54
50
96
212
197
195
194
190
187
183
172
165
166
167
165
170
168
170
172
176
118
109
96
93
78
75
76
167
171
122
101
102
101
102
98
94
96
94
93
89
85
80
77
75
77
88
91
89
93
91
94
97
101
99
99
104
96
88
84
75
76
84
80
75
80
80
85
84
79
79
90
94
96
96
94
92
95
93
87
78
82
90
91
89
90
84
83
87
60
50
70
70
64
54
159
207
200
195
195
193
189
188
183
186
180
179
177
180
179
179
177
176
90
91
95
99
81
75
81
168
157
109
101
98
98
102
99
95
95
100
95
95
97
92
87
88
92
93
93
95
92
91
95
99
102
97
99
108
96
90
86
73
73
82
79
77
78
82
86
88
84
74
76
83
90
92
93
90
87
84
87
85
93
95
92
89
88
83
85
86
60
49
73
75
66
59
153
206
198
196
196
193
190
188
186
185
185
184
182
183
178
179
178
175
101
103
106
107
90
84
78
153
136
110
101
97
98
97
97
99
98
94
95
92
99
94
92
90
97
97
91
89
90
92
96
102
94
96
102
107
100
91
83
77
73
81
82
81
81
83
88
93
91
87
82
75
82
87
91
91
92
99
95
94
96
95
95
90
88
84
85
81
56
58
83
75
66
60
147
210
198
196
196
193
191
189
191
187
187
183
184
185
181
182
179
176
102
104
107
108
99
83
76
139
124
107
98
95
98
100
96
96
97
96
95
94
98
98
97
95
93
98
92
88
86
89
93
102
96
98
98
94
94
89
80
75
71
76
77
81
80
81
89
95
96
86
91
90
87
84
86
91
99
94
100
104
100
99
94
89
89
82
85
85
50
71
82
71
62
66
161
208
197
195
195
192
191
190
188
189
187
184
184
183
180
180
179
176
103
103
106
111
104
88
79
125
119
104
89
94
95
94
92
92
94
94
97
99
99
95
95
92
95
93
87
78
74
85
90
104
98
100
100
95
92
86
84
74
68
71
76
72
78
82
88
96
93
95
91
92
93
101
98
99
103
103
104
103
102
99
91
89
85
84
87
84
63
78
75
75
65
64
193
203
199
199
197
194
191
193
189
188
187
187
182
182
183
181
179
178
107
105
110
108
103
83
82
129
118
102
91
90
91
90
89
90
95
96
95
96
102
97
95
95
94
92
83
67
72
87
106
103
91
93
112
105
99
91
78
77
71
74
73
71
71
77
88
91
96
93
93
95
96
99
104
102
104
105
98
100
96
90
89
89
85
85
83
82
71
76
73
72
74
82
216
200
199
197
196
195
193
190
190
187
187
187
185
183
184
179
179
179
105
108
108
111
110
85
82
117
119
102
91
91
85
94
93
91
96
100
102
95
100
97
95
94
91
88
75
64
93
97
101
91
94
96
114
110
102
81
77
75
72
79
73
71
66
76
90
98
96
95
94
92
95
99
100
105
102
98
97
96
90
88
89
85
83
83
84
85
71
75
75
71
68
149
209
201
200
198
196
194
194
192
191
191
186
187
184
185
184
181
178
176
103
110
110
110
114
100
81
120
112
96
92
90
86
92
91
98
97
98
100
98
96
90
93
89
87
81
68
90
101
103
104
87
92
91
91
101
102
91
81
82
77
77
81
78
65
70
86
95
101
95
96
97
96
92
99
99
100
94
92
85
88
88
88
84
81
84
87
86
75
81
80
73
78
205
201
201
197
199
195
196
194
192
191
188
187
184
184
184
180
183
181
178
109
109
111
112
113
116
88
110
111
98
93
87
89
90
90
101
101
100
100
96
97
98
90
87
85
71
67
100
105
100
100
89
88
87
90
91
94
84
83
73
78
80
83
81
73
63
76
89
92
95
95
101
97
96
99
95
97
93
92
85
90
89
84
85
84
82
88
86
72
80
81
69
155
211
202
200
199
197
199
197
194
193
190
188
186
187
185
184
184
181
182
179
108
113
109
113
113
114
106
100
115
99
94
91
91
94
95
98
96
93
98
94
95
97
86
80
77
64
70
97
93
86
89
85
81
84
87
89
83
78
71
67
75
78
79
80
78
67
67
81
88
93
96
98
101
98
101
98
97
96
91
85
85
85
81
83
85
82
89
85
74
85
83
75
205
204
203
202
199
196
197
197
192
191
190
190
187
189
186
186
181
179
179
177
108
110
112
115
112
116
115
115
116
106
90
91
92
95
98
94
95
96
92
95
97
92
79
84
72
63
72
84
70
53
66
85
75
82
82
79
73
71
64
66
72
74
77
79
74
75
66
72
85
90
90
98
96
100
98
99
97
93
90
87
84
80
78
83
82
87
87
87
86
95
75
115
203
205
200
201
198
197
199
195
193
192
192
189
188
188
183
185
184
181
180
179
110
116
114
116
112
113
115
126
116
107
93
94
86
96
94
93
95
95
94
93
91
89
79
78
74
70
77
74
63
44
36
80
75
74
75
75
73
66
61
44
37
51
69
71
71
75
75
66
78
86
91
97
94
95
97
98
98
90
87
88
80
83
81
83
83
87
92
92
85
84
80
101
197
205
203
202
200
200
199
196
195
195
192
189
189
185
183
185
181
183
181
177
111
114
115
114
117
118
115
115
117
107
94
90
89
96
92
97
94
94
89
91
87
86
79
74
73
79
82
70
56
55
49
56
77
72
71
70
67
63
55
51
45
42
53
65
69
75
81
71
72
80
87
91
92
99
99
93
94
92
90
86
87
83
83
84
83
84
94
97
91
90
99
90
184
204
205
203
200
200
198
198
196
193
190
189
188
184
183
184
182
181
182
179
111
113
116
116
114
116
120
115
119
115
99
92
88
93
97
97
92
94
91
90
88
86
77
72
73
83
83
77
62
53
47
42
55
60
60
63
63
58
56
53
46
49
50
57
67
79
85
79
72
79
86
89
91
97
95
94
94
94
89
83
85
86
81
85
90
88
94
101
99
115
100
83
169
204
203
203
201
199
197
195
193
194
191
190
190
186
184
184
182
182
180
178
108
112
116
116
118
118
117
117
116
113
100
90
93
102
98
89
89
88
86
83
80
81
73
71
75
83
87
80
78
71
68
66
65
57
55
58
64
65
60
61
58
57
61
68
79
85
83
81
72
77
82
87
86
92
92
93
89
92
84
85
88
84
86
90
85
89
100
109
104
170
100
86
148
205
201
202
202
200
196
197
195
193
192
188
188
188
186
183
183
180
182
178
111
117
113
117
114
116
116
117
116
117
103
93
95
93
95
87
87
83
80
81
81
80
74
76
83
85
86
82
80
79
78
81
75
72
73
70
69
71
71
71
70
72
81
84
86
85
81
82
78
75
79
89
89
92
92
94
92
88
88
86
84
86
87
87
90
95
109
114
221
186
98
90
136
201
204
203
199
198
201
197
197
195
190
189
188
186
187
183
183
181
180
177
111
115
119
115
116
116
116
116
114
121
114
101
93
96
93
91
87
78
81
81
76
76
77
80
82
84
82
81
81
84
81
86
80
81
75
70
70
80
79
76
69
74
79
83
83
81
79
79
80
74
79
82
88
90
92
92
93
89
88
85
85
86
89
89
92
103
120
190
255
220
109
96
118
197
201
205
201
200
199
198
194
195
191
188
188
188
184
184
182
183
178
177
112
117
117
117
116
116
117
115
116
120
109
101
95
94
87
90
86
81
83
84
80
72
81
78
80
79
80
79
85
85
85
88
84
82
74
71
75
77
82
76
70
76
77
83
81
84
80
73
79
79
77
81
89
90
90
90
88
88
88
84
89
90
94
94
102
126
228
255
255
242
124
102
107
190
203
202
201
200
198
198
196
196
192
190
189
184
185
183
183
178
180
178
109
115
115
117
115
115
117
116
115
118
116
97
93
94
89
89
88
81
77
77
74
76
78
79
84
85
84
82
81
85
83
84
81
71
75
72
65
78
85
79
70
75
79
81
81
75
76
77
71
77
79
78
81
83
87
87
87
88
87
88
93
95
94
98
111
221
255
251
254
254
141
103
101
179
203
201
201
201
200
195
193
195
193
190
188
186
186
183
182
178
179
176
112
115
117
115
117
116
116
118
117
119
119
101
97
92
90
83
81
79
74
74
76
74
82
81
82
80
81
80
80
84
83
86
78
75
69
65
67
69
80
79
73
76
81
81
85
81
79
79
71
76
79
80
83
85
82
90
85
86
87
88
93
98
95
107
151
255
254
253
254
255
160
114
99
161
204
204
202
199
198
197
194
193
191
189
190
188
186
185
184
179
179
178
109
114
120
117
114
120
116
115
114
118
120
113
96
95
91
82
79
75
77
76
74
78
81
83
82
82
81
80
82
82
85
82
75
74
68
65
65
73
79
77
68
78
77
81
80
83
75
74
77
76
73
79
84
87
87
86
88
87
90
89
90
96
99
110
214
255
252
251
253
255
184
116
98
144
201
203
202
199
199
199
194
194
191
188
188
187
186
185
180
182
180
177
110
116
119
118
114
118
115
115
114
115
121
111
104
95
87
87
77
76
80
74
73
77
81
80
77
76
77
75
78
79
84
80
84
89
80
75
76
83
88
76
71
79
78
75
79
73
75
74
76
73
79
81
82
87
92
87
84
88
91
94
97
98
104
139
255
253
253
253
252
255
213
118
103
124
198
204
201
198
199
196
194
193
190
190
187
185
184
184
183
179
181
174
109
115
120
115
117
112
117
115
116
116
120
110
105
92
90
85
75
74
73
77
76
77
79
76
70
75
76
79
77
78
89
85
93
95
85
76
85
92
89
81
78
77
75
78
75
68
70
77
75
73
76
81
86
86
92
91
90
94
95
100
95
100
110
212
255
253
252
252
253
255
228
127
106
115
189
202
199
199
199
197
193
193
187
187
186
184
184
188
183
179
180
175
109
116
119
115
115
116
117
113
114
113
120
115
103
88
92
86
80
73
76
78
76
82
80
73
70
70
73
74
80
79
86
79
76
86
90
97
99
89
82
79
81
78
73
68
71
70
71
73
74
77
81
82
85
92
94
94
93
91
93
97
95
103
121
245
255
252
253
252
252
254
251
134
112
104
182
201
201
198
198
197
193
190
185
187
185
183
182
183
181
178
180
177
111
114
118
116
116
119
116
111
116
115
119
112
104
93
91
83
81
78
78
76
75
82
73
71
69
69
70
67
74
68
61
55
56
58
70
80
68
62
59
57
66
71
68
69
66
70
73
77
73
80
78
83
89
92
97
94
97
96
96
96
95
102
143
255
253
252
253
252
253
253
255
146
112
97
171
200
199
198
199
199
192
193
171
186
185
183
184
180
180
179
177
175
109
118
117
114
117
118
117
113
111
111
117
111
98
92
89
84
83
79
77
76
80
79
74
68
67
60
54
50
38
42
46
47
50
57
60
64
56
45
45
46
47
47
45
53
61
59
70
75
74
77
81
90
95
94
96
96
96
94
95
94
99
105
144
255
253
252
253
252
253
253
255
172
115
103
154
200
199
197
202
196
187
180
175
175
189
184
181
181
179
182
178
176
110
116
115
114
115
117
114
113
114
114
118
114
105
96
94
87
84
77
77
78
80
75
68
62
55
58
72
73
70
75
80
79
71
67
57
54
52
61
65
67
67
68
65
66
68
63
60
69
77
81
84
89
95
94
95
93
91
91
98
90
96
106
149
255
252
252
253
252
252
253
255
191
117
104
141
196
202
199
203
200
190
179
181
170
189
183
183
183
181
181
177
175
110
116
116
113
116
116
112
107
114
114
114
118
107
96
90
86
83
84
77
75
72
68
59
57
56
77
81
81
81
79
76
92
96
87
81
71
73
81
85
81
74
74
77
78
76
76
69
66
71
83
87
90
93
93
92
92
88
91
93
89
97
103
149
255
253
252
253
252
252
253
255
213
125
106
125
191
199
198
203
202
192
184
186
165
186
184
184
183
182
178
177
177
109
114
114
113
113
116
111
115
113
118
114
115
113
100
91
94
86
80
76
71
67
67
64
65
74
77
77
81
84
81
83
87
92
97
90
90
92
92
83
79
82
77
77
74
73
73
71
68
71
75
83
87
92
94
88
91
89
91
89
91
97
106
144
255
252
252
253
252
252
253
255
234
126
109
115
188
201
200
201
206
195
187
189
165
182
185
183
183
179
179
177
173
111
116
116
111
115
112
113
111
113
112
113
112
110
98
90
90
80
78
71
71
64
63
67
68
73
76
76
81
81
84
79
74
75
76
79
82
71
72
70
70
76
73
73
71
75
73
72
71
74
73
77
83
90
90
90
85
90
88
90
91
94
100
132
254
254
252
253
252
253
253
253
244
138
110
106
181
199
195
197
207
201
192
185
176
183
183
182
181
180
179
179
176
112
118
115
112
111
113
113
112
113
110
113
111
114
99
96
88
83
75
67
67
68
69
68
70
75
79
79
76
76
74
75
64
62
62
60
61
58
57
60
63
69
66
65
68
68
70
75
70
72
76
75
81
85
87
86
82
85
87
91
91
93
97
125
245
255
252
253
252
253
252
253
255
150
113
105
170
200
197
196
195
191
187
185
184
186
185
181
181
179
179
178
176
110
115
113
113
114
114
112
111
115
110
112
112
111
106
95
89
80
71
64
65
64
69
70
73
74
71
74
68
67
67
67
61
59
57
55
53
51
59
59
62
62
58
63
70
65
66
70
68
70
73
75
78
82
81
87
84
87
89
87
88
92
96
116
238
255
252
253
252
253
252
251
255
165
118
105
160
199
200
195
194
192
187
188
185
184
184
181
183
178
177
178
176
110
115
113
112
110
109
111
108
112
112
112
114
110
112
95
87
77
67
64
65
69
69
71
73
69
67
70
64
63
61
58
53
58
59
56
59
59
58
60
61
60
63
64
62
64
69
71
73
75
74
77
75
77
79
84
85
83
83
86
87
92
96
107
236
255
252
252
252
253
253
252
255
190
119
106
140
200
201
200
193
194
190
187
186
184
187
181
182
179
178
174
172
104
110
109
109
110
111
111
111
112
113
111
112
111
114
102
84
75
68
68
68
69
68
69
67
69
65
65
63
57
54
54
53
56
52
54
56
55
52
57
54
58
62
60
63
64
65
71
74
75
76
76
75
76
79
81
82
79
81
80
85
87
93
102
227
255
254
253
252
253
253
252
255
210
120
110
126
193
200
197
194
195
192
192
189
186
183
182
182
180
178
176
170
105
107
109
108
110
112
108
109
112
109
110
110
110
113
113
82
77
68
67
68
67
72
70
68
67
65
65
67
62
64
69
67
72
71
68
71
69
71
76
72
61
66
69
67
68
68
69
75
78
76
76
76
76
72
77
78
79
79
80
83
86
92
92
125
213
255
255
255
253
253
253
255
232
137
107
115
187
198
199
196
196
190
189
188
187
184
181
181
180
177
176
173
98
105
107
104
105
107
108
107
111
109
106
109
107
110
114
92
73
74
73
74
70
70
72
68
66
73
76
73
72
79
74
69
78
75
70
74
71
72
76
74
73
73
74
70
70
66
72
73
79
76
78
76
74
72
78
73
78
78
78
78
86
88
89
97
110
135
207
248
255
255
253
255
241
148
107
102
176
198
198
195
194
191
188
187
184
182
181
179
178
174
175
171
95
101
104
103
104
105
107
107
111
106
105
107
106
110
115
104
74
77
71
70
71
66
69
69
72
74
77
77
78
79
77
77
78
72
73
71
72
79
79
79
76
79
74
74
74
71
72
73
73
77
71
72
73
72
72
74
77
78
79
79
86
89
85
92
100
101
115
130
174
227
255
255
255
221
129
109
156
198
198
196
194
192
188
187
186
183
181
179
177
177
175
169
96
97
101
101
101
102
106
109
107
107
110
108
107
109
114
105
86
66
63
66
71
67
72
74
77
77
78
78
79
73
77
77
76
78
74
77
77
77
79
76
74
77
76
73
76
75
70
71
69
73
69
68
71
71
72
71
70
75
75
81
84
85
85
87
92
94
103
109
111
124
138
169
199
204
192
155
150
198
195
195
191
189
189
186
183
183
181
179
177
176
171
168
90
99
97
101
100
99
101
106
104
104
104
106
109
109
112
108
94
81
62
56
61
70
72
74
76
84
81
79
75
80
75
74
79
81
79
74
74
76
78
79
75
79
73
74
72
71
67
68
69
68
66
65
65
65
64
70
71
71
73
81
84
82
80
87
89
92
94
98
98
112
111
108
108
99
109
139
173
202
201
201
191
188
188
185
182
181
181
178
176
173
171
170
91
95
94
98
99
98
95
101
104
102
106
107
107
107
108
107
92
89
80
64
56
58
76
79
83
82
80
75
75
75
77
74
78
71
70
68
71
77
80
80
79
72
73
79
67
68
69
69
66
67
63
59
58
59
62
67
68
69
76
81
81
77
76
84
86
86
91
94
94
101
100
100
101
100
98
99
94
104
132
188
201
195
189
184
183
180
178
178
174
175
172
171
92
93
95
100
98
99
101
102
104
103
102
105
105
106
108
107
94
83
80
72
69
63
65
81
85
80
81
73
73
72
68
69
72
68
69
63
65
71
72
73
74
71
73
74
66
65
69
65
62
61
56
58
60
62
65
66
68
71
78
81
80
80
75
81
86
86
87
92
97
92
99
98
100
96
97
97
97
92
87
86
105
137
169
185
185
184
181
178
175
173
171
170
90
94
99
99
97
98
98
104
100
99
102
106
105
107
108
110
92
83
79
69
68
70
66
76
80
78
71
72
73
66
64
64
63
63
58
57
65
70
70
62
66
65
62
65
66
66
65
65
59
57
60
62
67
63
67
67
66
68
78
76
79
74
75
79
79
84
85
89
95
94
99
92
92
95
95
94
92
95
91
96
87
85
81
102
137
179
187
182
177
177
174
169
91
99
96
98
101
95
100
101
102
98
102
103
104
108
107
110
94
86
80
72
64
65
70
66
73
74
69
69
69
65
67
66
61
56
53
54
60
71
71
67
67
63
67
68
65
63
62
58
60
62
63
68
68
69
68
66
67
71
77
76
79
73
75
79
79
83
84
89
92
88
92
91
90
95
91
90
94
90
91
94
89
88
87
87
82
78
100
141
175
180
171
169
96
100
97
99
99
95
100
100
101
98
101
104
105
106
106
110
94
83
84
74
71
66
60
69
68
71
66
60
63
62
62
61
59
58
58
55
60
61
64
61
64
62
64
60
61
53
58
59
63
64
67
68
66
62
63
65
68
76
78
76
74
74
76
76
79
79
80
88
83
88
91
90
93
92
89
92
90
93
92
89
90
89
86
86
86
87
83
79
78
100
131
149
95
98
102
96
97
95
97
102
99
103
105
101
103
108
110
109
102
83
79
75
75
68
62
60
63
67
65
60
62
56
56
56
60
53
53
52
49
54
61
62
59
59
57
58
57
58
58
59
61
64
63
62
60
61
60
64
74
76
74
69
71
71
76
75
75
74
78
81
82
83
88
89
90
90
93
93
90
91
91
90
89
91
84
87
87
85
84
85
79
81
75
78
97
98
98
98
98
97
98
98
100
99
101
103
103
106
110
115
106
84
73
76
74
70
66
67
56
60
66
61
63
62
57
57
54
55
53
51
51
48
46
49
53
56
56
56
56
59
59
57
57
60
57
58
56
60
62
70
75
72
71
68
69
74
76
71
77
77
76
80
82
83
83
90
93
88
89
91
86
85
89
92
90
90
88
84
88
80
79
88
83
80
82
80
95
96
95
96
99
97
102
98
97
99
104
103
102
105
114
125
134
82
71
77
74
69
68
69
61
61
67
65
62
64
62
60
60
57
56
62
58
57
58
57
55
57
59
58
58
57
54
56
56
52
57
60
57
58
67
71
71
70
68
67
69
70
69
72
74
73
76
80
81
81
88
87
89
89
88
87
86
88
88
92
89
83
86
86
85
83
81
83
83
79
77
78
94
96
98
98
100
100
102
98
97
101
100
100
108
108
137
148
124
87
76
73
72
73
67
68
66
67
68
68
67
64
64
62
61
62
64
66
62
63
66
63
62
57
56
55
54
56
55
57
56
57
57
59
59
61
67
67
66
64
67
71
67
69
69
71
73
73
76
77
77
81
85
83
86
86
83
86
88
85
90
89
88
86
83
81
86
84
85
86
80
80
80
78
97
97
98
97
99
96
101
98
98
98
101
104
116
137
144
123
110
87
75
69
68
68
67
69
63
64
66
67
63
66
64
61
61
64
59
60
59
58
62
58
57
54
53
54
55
59
60
56
58
59
58
61
61
63
69
66
63
66
71
64
66
68
65
69
72
74
75
73
73
84
80
81
85
84
81
83
88
84
89
87
83
84
80
85
89
83
80
82
83
80
79
77
