P2
# CREATOR: GIMP PNM Filter Version 1.1
92 112
255
245
247
249
248
248
247
246
244
244
242
242
243
243
242
245
243
244
244
245
248
247
248
247
248
247
247
246
238
236
220
210
240
241
236
241
209
194
149
152
125
158
193
179
169
231
234
228
235
232
225
229
225
226
227
224
224
219
217
217
215
212
209
211
210
209
205
206
203
203
201
198
196
195
190
190
191
187
185
186
184
181
180
180
177
174
172
171
171
169
167
166
161
247
249
249
247
250
249
247
247
247
243
244
244
244
243
243
244
244
246
246
246
249
248
249
248
248
250
247
241
223
173
193
230
235
229
230
217
200
138
144
135
145
185
148
120
148
231
231
238
230
229
228
231
229
228
225
224
224
218
220
215
210
215
213
212
208
204
208
204
201
202
201
195
199
196
193
191
188
189
187
186
181
181
176
175
175
174
171
170
169
171
165
165
248
249
251
249
249
249
248
249
249
248
247
246
244
243
245
244
245
245
244
247
249
253
246
228
239
223
171
205
205
157
165
198
216
211
220
227
177
131
113
149
171
133
173
138
103
184
234
220
213
222
238
224
228
224
223
225
225
221
222
208
219
216
213
212
210
207
207
204
202
202
203
198
196
196
192
190
190
187
187
184
184
180
179
176
175
173
172
170
169
170
163
165
247
248
250
248
250
250
250
249
249
248
249
247
244
246
247
246
247
243
240
241
242
230
212
172
129
125
127
146
110
107
130
150
144
184
202
188
160
116
97
122
129
142
163
143
90
91
152
141
121
90
129
200
218
223
219
228
225
221
211
220
218
216
214
213
211
209
207
206
206
203
202
199
198
196
191
193
190
189
186
186
183
181
177
176
176
173
170
171
169
165
164
162
248
251
249
249
250
250
250
251
250
251
249
249
247
247
241
247
242
237
229
206
165
173
158
123
140
143
105
105
104
85
86
89
84
129
140
151
114
91
98
96
99
129
171
113
84
72
126
148
163
95
57
78
132
153
228
229
219
209
224
222
219
217
214
215
212
208
209
208
205
203
203
200
198
197
193
192
191
189
185
184
182
181
180
177
176
173
174
171
166
166
165
161
248
249
252
251
251
250
250
251
251
251
250
251
249
250
243
244
241
237
181
127
133
166
119
151
179
138
106
98
79
69
80
69
73
62
116
160
102
95
89
75
76
88
118
96
76
77
119
126
93
93
69
67
83
91
113
196
210
225
226
217
220
218
215
216
213
213
209
207
208
206
204
201
202
199
195
193
190
190
188
187
185
182
178
177
176
171
171
170
168
168
165
163
250
250
252
250
249
251
251
249
250
249
251
250
250
251
251
232
242
235
128
136
134
147
94
121
150
135
92
97
73
74
65
65
65
60
75
96
98
87
77
82
68
74
74
82
68
72
110
125
88
104
73
67
75
76
62
70
114
188
213
223
223
221
220
217
213
212
211
211
209
208
206
203
202
199
198
195
193
192
188
187
183
181
178
178
176
173
170
170
168
165
164
161
250
250
250
251
250
251
250
252
254
252
251
252
251
251
249
245
198
232
126
106
109
108
102
103
106
98
99
86
76
73
68
60
67
60
66
70
90
106
69
62
65
68
73
97
65
73
111
119
85
87
84
75
76
59
61
62
63
76
135
176
222
226
220
220
215
214
214
211
209
206
203
206
203
200
198
196
193
190
190
187
184
182
180
178
177
174
171
169
168
168
164
162
250
250
250
250
250
252
252
252
253
252
250
252
251
250
249
241
201
191
120
122
108
87
95
91
110
98
93
88
71
73
83
57
64
63
55
60
66
92
66
61
62
77
80
106
70
92
81
74
74
82
61
53
57
61
79
77
83
76
69
80
118
160
185
208
215
215
207
207
211
208
208
203
204
204
197
196
193
189
191
186
182
185
180
177
176
173
173
170
168
164
164
162
251
251
251
251
253
253
253
251
253
253
251
252
247
246
248
244
231
180
163
76
90
89
80
96
97
101
86
90
72
66
81
74
55
65
59
56
62
68
79
54
49
63
73
74
62
64
66
60
68
63
51
52
58
71
67
72
79
79
82
77
86
115
136
171
201
211
213
215
215
211
208
208
205
200
199
199
196
191
191
187
183
184
181
179
177
173
171
168
167
166
164
163
250
253
252
251
253
253
252
251
252
251
250
247
248
244
231
244
233
216
125
94
93
87
80
86
91
96
76
93
73
62
66
83
67
50
58
57
57
55
70
63
45
54
62
58
54
66
55
51
67
54
46
51
53
57
55
64
67
70
98
88
93
90
82
99
124
193
216
209
209
211
208
206
201
203
198
200
195
193
188
187
185
183
180
180
177
175
173
169
169
162
166
160
251
253
252
252
253
253
253
252
253
251
252
250
246
253
207
227
244
202
129
103
90
84
81
72
73
94
82
100
71
62
62
61
74
58
56
56
51
50
61
65
53
39
57
53
49
53
45
43
56
39
47
45
46
53
52
72
68
68
70
91
91
97
119
117
82
87
170
201
208
209
207
208
206
207
201
199
195
194
189
188
185
185
178
180
175
175
173
169
169
162
162
162
251
253
253
251
251
253
253
253
253
253
253
253
245
229
224
201
204
180
191
125
91
76
72
76
75
76
88
93
71
65
70
63
56
72
61
48
53
48
54
51
55
31
45
48
42
48
43
40
46
36
41
43
44
45
63
86
56
56
71
83
74
81
91
69
72
95
142
183
211
212
212
210
208
204
202
200
197
194
193
190
186
184
183
179
177
172
173
170
167
167
165
160
253
253
253
253
252
253
253
252
252
253
252
253
254
242
220
200
182
165
171
180
111
84
74
61
56
71
70
90
76
66
63
77
57
58
59
68
55
51
55
54
38
36
36
39
40
49
41
38
39
33
29
41
36
39
51
43
50
58
65
69
70
61
55
63
64
80
150
213
207
208
211
212
207
205
202
203
198
194
192
189
185
186
182
178
177
174
172
172
169
167
164
160
253
253
252
253
253
253
252
253
253
251
253
252
249
251
221
165
148
166
128
102
95
71
67
64
63
51
60
70
77
73
66
61
74
61
58
58
59
56
44
48
47
41
38
33
34
42
42
36
35
38
48
39
37
43
50
37
46
51
49
54
57
67
67
60
56
50
54
144
204
211
213
212
209
206
204
202
199
193
192
191
187
185
180
179
175
174
174
167
163
165
162
162
253
253
252
253
253
253
253
253
253
253
252
253
252
251
236
152
98
89
116
99
81
68
61
56
64
49
47
50
50
64
69
61
65
72
65
62
53
50
52
48
49
46
43
34
28
36
36
41
39
29
33
39
44
40
35
39
38
44
46
47
61
63
52
64
63
80
72
53
127
188
208
212
212
208
205
203
200
198
196
191
189
185
182
179
175
175
171
168
167
163
164
161
253
253
252
253
253
253
253
253
253
251
252
252
254
240
228
172
107
85
67
79
76
92
67
64
61
65
56
45
55
65
66
61
56
56
58
60
58
55
52
51
53
46
43
43
37
35
42
37
33
30
29
35
43
44
33
35
38
42
45
51
55
53
56
58
56
62
77
76
56
143
200
190
204
208
204
203
200
197
192
190
187
186
183
179
175
174
172
169
166
163
161
158
252
252
253
253
253
253
252
253
252
253
253
254
244
223
200
178
137
91
78
65
67
66
66
82
73
60
78
82
77
70
66
69
61
60
63
63
61
61
57
54
56
52
52
45
48
50
46
41
41
34
29
32
39
51
36
35
40
46
46
48
42
51
50
59
49
56
61
60
58
91
148
197
210
206
207
202
198
195
194
191
187
186
181
177
174
175
169
166
167
162
159
157
253
253
253
253
253
252
253
252
252
253
254
226
204
186
179
167
122
105
87
68
59
68
90
87
78
83
88
73
59
56
60
54
63
66
60
65
70
63
62
56
58
61
59
55
53
52
49
50
47
38
33
35
34
39
51
39
38
38
39
37
45
46
51
52
50
55
62
64
64
80
134
169
196
201
203
201
197
197
192
188
186
180
181
178
172
172
171
166
165
160
156
158
253
253
253
253
253
252
253
253
253
250
236
208
220
150
125
117
100
91
69
73
80
89
78
73
82
84
68
65
60
71
64
67
68
63
66
73
61
64
70
70
72
69
66
64
62
67
63
58
53
51
47
44
39
36
36
44
34
34
30
39
39
43
43
43
42
42
53
53
58
65
117
174
210
207
205
202
199
193
192
190
184
184
180
176
174
173
167
165
162
161
158
153
253
253
253
253
253
253
252
252
251
251
233
237
196
137
132
119
135
101
80
75
76
69
67
86
70
67
80
74
70
70
67
70
69
74
83
78
77
74
71
77
75
75
68
70
68
68
67
64
69
67
61
54
49
41
41
38
37
39
37
38
37
41
37
45
41
47
48
48
57
55
73
155
190
201
204
201
197
194
190
188
185
182
178
174
170
168
167
163
161
156
156
152
253
253
253
253
253
253
252
252
245
233
188
166
130
80
93
100
80
93
82
84
75
74
72
63
79
75
69
65
66
68
73
77
80
85
87
82
78
78
76
81
82
73
77
75
78
78
77
74
75
77
74
69
63
57
50
40
39
43
40
39
43
41
48
48
49
48
49
56
55
56
50
91
184
197
201
201
197
192
189
186
183
180
178
173
171
166
165
162
158
157
157
154
253
253
253
253
252
253
252
254
235
218
121
120
97
83
80
91
82
83
89
74
76
67
66
81
71
60
69
75
76
81
83
83
88
84
81
82
79
85
83
86
84
85
83
83
83
84
82
85
83
82
83
75
71
70
61
50
48
40
42
40
41
45
45
46
53
59
61
60
49
57
49
48
128
201
202
200
196
192
188
184
182
178
174
171
168
164
162
158
158
157
154
154
253
252
253
252
252
253
252
254
235
210
139
118
117
94
65
69
78
103
80
72
66
78
78
72
66
70
81
80
83
86
89
88
90
86
87
92
86
89
85
91
93
88
90
89
89
88
86
87
86
85
85
81
81
78
72
63
62
52
46
41
49
46
48
51
47
54
59
61
60
56
57
60
68
167
194
199
191
191
188
184
180
174
172
169
165
163
160
157
157
154
153
153
252
253
253
252
252
253
250
253
240
156
119
86
85
80
77
72
75
62
73
78
80
71
62
75
75
85
86
87
93
92
89
93
92
88
89
88
93
94
92
95
93
99
96
96
93
93
87
90
89
88
87
86
83
84
77
72
75
65
55
45
38
43
49
53
47
50
49
58
63
65
66
64
71
146
203
194
191
188
182
181
176
172
168
165
162
160
162
155
155
153
149
137
252
253
253
251
252
254
237
212
211
149
91
89
72
57
68
68
61
67
71
81
79
68
80
81
86
91
95
94
98
98
98
97
94
94
94
97
96
95
98
93
98
95
94
95
95
92
94
95
91
89
91
91
89
89
87
81
79
79
66
57
50
37
38
49
55
61
58
56
59
60
58
61
58
148
200
199
187
185
182
178
172
170
164
162
159
161
158
151
145
131
120
122
252
253
252
252
253
254
227
137
107
90
71
80
79
79
83
76
70
74
77
79
81
87
88
93
96
95
99
101
101
100
98
103
95
97
98
97
97
102
101
102
104
102
102
98
99
102
96
97
93
90
91
91
91
91
89
82
79
81
78
74
65
51
42
43
44
51
58
54
61
59
69
61
63
86
178
195
193
181
178
174
169
163
163
162
157
149
137
126
126
135
144
147
252
252
253
252
253
253
148
106
71
71
69
71
69
67
67
84
90
89
72
81
100
95
96
100
99
100
97
96
96
94
96
95
93
94
95
93
91
93
97
100
99
101
101
101
101
104
96
91
94
95
91
94
93
90
92
87
82
84
80
77
72
65
59
41
40
36
44
54
42
45
51
63
73
84
163
183
179
177
174
167
168
165
156
140
131
129
135
148
151
152
152
152
253
252
253
254
253
220
140
97
78
61
67
67
76
75
83
60
72
80
97
100
102
100
107
103
100
102
103
101
97
99
101
101
97
93
98
96
97
95
94
94
95
97
95
92
94
97
97
92
93
95
95
93
95
96
90
87
90
84
83
80
77
71
68
60
46
45
42
40
47
40
51
57
71
121
172
181
176
171
171
160
146
134
134
143
149
153
155
159
157
156
159
159
252
253
253
243
211
143
114
74
73
80
79
77
80
68
58
89
90
104
114
111
111
105
102
105
105
101
103
103
102
98
100
99
100
98
98
99
103
99
100
100
98
97
102
98
95
96
97
97
97
90
94
93
93
97
95
90
90
89
83
81
80
78
71
68
59
32
47
45
39
51
47
49
57
92
177
179
170
155
143
140
150
157
161
158
160
161
161
161
162
163
162
160
252
253
251
185
110
99
73
80
76
66
71
62
57
72
94
102
109
116
112
105
105
104
107
102
101
99
97
100
97
103
99
98
96
97
96
94
94
94
97
99
99
99
98
101
99
101
98
98
99
96
93
90
93
94
93
90
89
84
85
83
82
79
74
73
68
48
30
52
44
42
50
49
65
59
139
157
146
154
163
167
170
168
168
167
166
168
167
165
167
167
163
164
252
252
250
196
91
80
80
73
69
61
67
69
69
93
113
119
113
109
107
102
108
103
96
97
101
100
101
102
101
101
100
95
97
99
98
100
97
97
96
96
96
95
91
91
94
92
94
96
92
96
95
92
94
91
92
92
87
84
81
84
84
81
76
77
75
68
43
36
59
50
49
47
53
65
97
171
170
174
175
175
174
172
172
173
171
168
168
168
168
165
166
164
250
251
243
204
199
157
107
85
72
68
62
63
78
117
125
111
114
109
103
98
96
99
102
104
106
102
102
100
99
98
100
100
99
98
98
102
100
100
100
101
101
103
99
96
96
92
95
94
89
89
91
90
95
95
90
87
92
90
86
82
84
82
79
80
75
72
67
35
45
61
44
58
46
55
113
181
172
182
180
178
179
177
178
177
175
173
171
169
168
164
165
165
250
252
251
252
219
101
90
101
81
66
58
68
113
132
116
114
108
102
99
102
104
102
104
100
100
98
95
94
93
95
97
101
98
97
97
99
100
104
104
105
102
100
96
102
102
101
96
94
94
91
93
89
93
93
93
87
91
89
87
83
82
82
82
79
78
78
75
47
37
60
55
50
59
43
120
193
182
187
185
181
182
180
181
177
172
164
161
156
157
154
156
154
235
248
254
235
122
105
80
76
73
59
54
91
137
150
119
110
107
109
107
102
99
96
97
100
101
100
103
103
100
101
98
97
99
103
100
100
105
98
100
103
101
101
98
101
102
97
96
95
92
88
90
89
94
92
93
90
91
87
87
82
83
83
82
81
79
80
79
69
40
44
59
51
46
43
111
195
189
190
188
187
185
183
172
171
181
193
197
188
190
182
163
146
238
238
241
211
138
94
71
65
69
55
75
144
176
156
113
112
113
108
97
99
106
104
105
104
102
102
103
103
103
105
103
103
98
103
104
107
106
102
103
102
105
104
100
100
102
101
98
100
101
95
94
90
90
90
91
93
92
89
84
87
85
84
78
85
81
79
80
75
55
36
57
59
59
47
140
202
194
193
192
188
178
190
184
174
182
177
154
137
141
146
171
191
233
236
237
215
142
84
71
95
67
71
94
177
192
134
112
115
101
99
107
106
104
102
102
101
102
104
100
100
100
102
99
97
98
103
105
100
100
99
102
103
105
103
101
103
105
103
99
95
100
98
98
96
94
90
94
91
95
90
87
88
83
80
81
82
80
80
80
75
68
36
42
66
56
55
127
208
196
196
191
188
202
158
135
140
143
136
148
155
146
147
147
145
226
232
235
226
148
82
97
98
67
83
125
211
192
125
115
103
104
109
107
101
100
107
108
110
109
106
105
102
101
102
102
102
106
102
102
104
103
99
106
104
106
97
101
100
110
105
101
98
96
96
95
93
97
95
94
93
94
91
88
87
86
83
83
80
80
78
80
78
72
50
38
55
59
56
112
211
201
195
201
188
129
145
160
141
146
127
155
168
113
159
158
154
222
225
230
205
153
91
159
87
76
77
167
209
197
132
100
109
112
106
108
108
111
115
111
111
110
105
105
109
109
108
105
106
109
109
105
105
103
89
102
103
105
102
100
105
109
104
106
102
91
91
97
96
99
96
95
92
92
90
88
81
82
84
81
83
79
77
79
76
76
61
49
48
58
59
123
201
201
210
185
126
147
161
157
155
139
131
145
165
136
157
157
132
216
221
223
201
166
143
138
99
60
97
189
204
182
129
102
116
108
115
116
112
115
114
112
112
111
108
112
105
107
110
109
103
109
109
106
104
99
100
101
100
104
104
100
101
99
105
105
103
102
93
101
100
100
99
97
91
94
91
89
87
85
87
80
83
77
79
77
77
73
63
47
50
61
58
94
208
211
209
135
157
154
144
129
173
163
138
143
156
163
164
159
134
223
219
208
219
148
192
137
68
87
121
187
193
197
122
124
108
121
117
115
113
113
109
108
110
108
108
109
105
107
109
112
111
110
108
104
105
100
101
104
103
106
107
104
103
99
105
108
107
101
102
105
104
100
93
94
91
97
89
89
89
88
84
81
81
77
77
79
77
75
67
54
42
64
59
58
198
239
146
148
180
171
159
164
171
167
149
141
160
166
160
159
154
110
207
223
191
163
196
112
79
105
130
207
187
166
127
116
129
124
112
107
108
110
106
108
102
102
103
103
107
108
107
109
108
111
112
110
107
106
104
106
106
106
103
104
106
109
108
105
110
102
105
103
103
101
96
97
96
95
92
89
87
87
87
82
82
73
77
76
77
75
70
57
49
67
54
67
193
198
131
156
152
151
182
177
173
173
149
137
165
120
155
162
163
32
29
92
151
187
154
89
111
108
132
212
189
158
115
128
115
105
96
98
93
97
98
94
91
93
93
93
94
98
106
105
108
106
109
114
106
111
112
109
106
107
108
109
107
111
107
107
106
104
102
105
106
103
101
98
94
97
91
90
90
90
87
85
81
77
77
77
74
75
70
57
49
67
59
59
216
186
166
170
119
153
181
177
173
177
148
109
129
163
165
163
163
38
51
37
164
202
134
105
93
106
159
189
169
121
126
103
78
70
69
75
74
73
73
75
75
81
82
79
83
89
94
98
104
103
108
108
107
113
112
111
105
101
103
108
108
105
108
102
104
96
101
99
98
99
97
96
97
91
94
90
90
89
86
84
76
74
77
76
77
74
71
61
53
66
75
64
207
162
167
183
176
183
182
179
177
180
118
109
174
167
168
164
165
37
37
53
179
204
155
86
74
109
207
182
133
117
83
67
68
65
67
64
62
65
66
61
61
62
65
72
68
70
79
88
96
101
99
102
104
109
107
105
105
101
99
105
105
105
105
98
100
98
91
93
94
95
92
93
92
92
93
89
89
89
89
85
85
79
80
78
76
74
74
65
60
63
68
81
228
160
164
159
160
186
177
179
178
177
111
151
172
170
168
167
166
31
47
112
174
213
126
78
84
125
209
164
122
104
74
74
69
67
64
61
56
54
51
47
52
47
54
61
62
64
70
77
87
90
94
94
98
97
103
105
102
98
95
102
99
96
98
86
85
83
80
79
82
85
85
89
85
85
89
87
88
87
88
86
86
83
81
80
78
78
70
62
60
62
80
77
236
172
161
142
138
188
180
180
180
175
171
172
172
171
170
166
163
74
67
123
173
204
122
69
81
145
213
133
109
83
78
77
70
60
50
47
44
39
40
42
42
43
45
48
56
59
65
73
81
85
87
87
93
91
97
100
98
96
90
94
98
98
87
80
78
75
72
65
62
61
65
74
76
76
78
84
81
83
82
83
82
83
81
77
78
76
72
68
59
67
83
72
209
186
155
173
190
180
184
183
179
177
176
175
174
172
169
167
167
106
117
149
168
195
107
81
89
179
197
111
100
77
68
64
58
56
58
59
52
54
51
53
56
52
55
57
57
59
65
68
72
82
79
82
93
91
90
91
90
90
85
89
87
88
87
72
68
70
66
63
49
49
52
56
61
64
68
70
73
74
76
77
79
81
78
81
79
79
77
68
63
71
79
68
189
238
146
180
162
129
182
183
181
178
177
170
169
174
172
129
147
48
95
189
185
189
104
82
108
209
150
107
78
67
66
66
65
68
70
70
66
65
64
62
64
64
63
63
63
63
67
65
69
77
76
80
88
88
86
89
88
85
81
82
84
83
79
70
65
64
58
55
48
45
42
43
46
51
53
58
59
63
60
61
65
73
81
79
77
81
78
65
60
72
83
65
142
255
186
156
160
150
174
170
161
182
176
164
155
178
173
139
113
51
67
172
203
174
113
72
158
209
112
83
76
74
71
72
68
67
66
61
58
60
57
57
58
60
58
62
63
63
66
68
67
66
73
77
85
85
83
89
85
83
77
79
79
77
75
62
58
58
58
48
50
46
41
44
42
44
44
49
53
52
57
59
56
62
74
81
82
80
81
67
54
71
85
59
110
227
254
184
155
178
188
166
149
184
180
111
127
175
169
162
176
48
122
191
212
174
92
81
213
157
94
75
73
76
71
70
64
60
68
75
83
86
88
84
80
76
67
65
63
58
62
63
62
65
69
72
80
86
86
86
82
78
72
73
71
71
72
63
58
53
52
51
52
48
45
42
42
38
42
46
46
49
59
60
57
56
63
71
80
80
84
71
54
65
79
66
116
209
232
254
206
163
163
166
138
180
176
147
147
163
172
205
252
57
162
192
186
149
83
109
224
119
91
75
75
81
70
61
72
85
98
102
104
108
104
104
100
100
92
82
75
64
59
57
59
63
65
72
76
83
84
84
81
76
70
66
64
66
64
61
57
51
50
50
51
50
52
55
54
54
50
48
46
50
55
58
61
56
61
67
76
82
84
77
49
67
76
79
128
221
193
207
246
242
215
191
185
174
176
184
196
207
219
211
126
44
157
169
160
150
65
170
197
135
94
82
83
82
69
80
101
104
104
104
106
109
111
105
102
100
97
93
88
76
68
62
60
60
65
69
71
80
84
90
87
84
79
73
65
59
60
59
54
54
50
52
56
62
65
69
71
76
69
69
62
60
59
61
63
57
58
63
72
80
83
86
52
61
74
82
147
219
212
193
175
187
209
212
202
217
228
234
232
151
120
106
125
121
166
148
164
118
74
200
176
155
102
84
82
84
79
108
108
107
108
104
104
107
100
97
92
90
86
82
81
78
79
72
64
61
62
76
83
88
98
103
104
100
92
86
78
69
64
60
55
55
63
65
69
73
78
84
89
92
96
92
93
91
82
71
63
60
60
57
61
74
84
86
59
58
75
86
158
213
214
211
204
183
166
151
156
178
178
157
139
129
142
157
172
183
126
172
147
125
90
213
191
146
102
85
81
87
108
117
111
97
87
85
83
79
80
77
73
64
69
68
71
68
72
69
63
63
61
78
89
96
105
111
109
103
93
88
80
75
69
56
57
62
65
69
72
81
93
100
96
97
97
102
99
100
103
94
87
74
64
60
58
71
81
84
62
54
71
71
168
225
212
214
211
209
203
198
186
176
171
171
177
180
182
183
185
101
93
152
121
126
114
226
180
145
97
86
81
92
122
111
81
81
82
69
59
47
39
36
38
45
48
57
63
69
70
68
67
71
67
79
89
96
100
107
112
104
93
85
81
77
65
53
59
61
64
61
59
62
72
91
104
106
100
94
99
101
101
95
89
85
77
68
60
68
80
86
66
50
66
78
77
176
219
212
212
206
208
204
202
200
197
195
195
194
194
193
192
85
82
115
135
114
152
216
181
127
97
92
91
116
115
74
63
47
40
31
25
20
40
25
24
37
57
52
46
57
67
79
96
84
72
83
94
97
102
106
107
102
89
88
82
74
63
69
64
70
67
63
62
64
61
60
58
80
98
107
93
90
90
94
95
87
87
80
72
69
76
88
72
52
67
74
63
107
225
214
209
210
208
207
205
203
199
201
199
198
196
196
195
97
61
95
126
107
193
183
135
108
97
99
111
116
65
36
29
32
46
43
31
25
23
21
26
39
75
73
60
52
51
65
73
75
82
85
96
106
105
109
107
100
90
83
78
75
71
78
87
73
59
46
46
44
28
33
29
31
37
52
72
83
84
87
91
88
86
83
73
70
79
86
80
60
64
65
57
105
225
212
213
210
209
206
204
206
205
201
202
201
198
196
198
95
74
95
138
107
221
160
116
98
96
96
97
82
60
67
62
59
65
71
62
49
51
49
56
68
71
65
67
83
86
81
78
83
85
89
94
106
106
106
107
101
93
85
80
78
78
70
74
52
49
58
59
55
34
31
32
33
25
32
39
43
55
76
86
80
82
80
74
76
85
91
82
62
68
70
62
111
224
214
211
211
208
207
205
206
204
202
202
201
198
198
199
92
75
94
104
126
213
169
126
111
102
97
99
101
106
108
88
67
71
58
74
66
74
73
71
65
70
72
71
79
78
77
88
88
92
98
95
110
112
109
104
98
95
83
84
82
81
78
74
77
75
65
62
59
33
31
28
29
29
33
50
47
32
35
52
76
79
84
72
78
83
90
90
54
72
76
68
128
224
213
211
211
208
209
206
206
205
204
203
200
201
200
198
96
84
99
83
120
198
116
99
101
109
106
99
103
98
86
90
95
87
81
85
63
68
77
77
67
70
71
77
77
85
90
92
88
97
94
103
113
111
108
106
99
95
81
81
86
79
78
85
74
82
85
69
69
74
65
49
46
42
59
67
60
46
36
38
46
74
83
82
79
86
87
96
57
66
74
66
115
225
215
212
211
212
209
206
204
204
204
204
201
201
200
198
104
97
102
71
124
182
138
143
123
109
97
100
92
76
77
83
78
79
84
85
80
74
75
71
70
76
81
84
91
88
91
90
94
100
90
108
115
113
113
108
104
101
84
82
90
85
81
83
80
75
82
82
81
79
81
76
72
68
64
64
65
67
59
65
60
66
70
79
80
79
83
94
72
64
74
66
111
225
214
214
210
212
209
207
206
205
202
204
202
201
200
198
104
94
91
73
129
198
162
115
100
94
97
99
99
110
111
97
93
88
75
70
70
68
76
86
90
80
83
93
92
84
87
97
101
101
93
112
113
115
118
108
106
99
79
82
92
85
86
81
84
86
89
86
81
84
90
96
75
90
82
95
87
90
88
84
91
89
83
88
91
96
92
95
77
60
76
68
119
221
214
214
210
211
208
208
206
205
203
204
203
201
198
199
107
105
90
66
135
189
110
96
108
115
113
110
105
94
95
94
86
89
84
83
84
84
84
85
83
87
97
96
92
87
90
96
103
95
99
111
112
117
120
108
103
97
81
78
94
93
87
82
86
85
91
89
92
94
87
87
84
94
87
92
91
87
87
77
75
72
88
93
88
88
94
94
65
67
83
76
120
224
214
213
212
211
209
208
206
207
205
205
204
203
200
199
103
101
93
74
144
124
108
138
121
111
109
106
108
107
102
100
95
96
99
101
98
95
94
93
98
96
101
100
100
97
98
95
100
96
110
112
112
117
118
112
103
93
82
78
95
91
82
83
85
87
91
89
88
87
89
87
82
83
85
88
86
84
86
93
86
92
94
93
94
92
93
89
60
78
75
74
168
220
216
211
212
211
209
209
207
204
205
204
204
202
201
199
110
95
91
76
137
128
177
119
112
117
116
113
111
109
105
101
95
101
98
100
99
91
87
99
102
101
96
100
101
99
98
99
104
99
108
113
113
114
109
111
108
92
82
79
93
89
84
83
88
91
93
93
88
86
85
89
92
99
101
100
98
98
108
105
102
101
102
99
92
94
95
94
77
82
77
78
209
216
215
213
210
211
209
209
206
205
207
205
204
203
202
199
118
98
93
86
139
173
125
108
115
115
110
112
108
108
102
107
105
105
106
108
103
103
101
108
108
108
99
105
101
101
103
104
105
101
111
110
113
120
109
109
105
93
85
81
85
89
86
90
91
91
97
98
97
100
91
87
83
83
84
84
87
94
99
104
105
103
104
104
99
92
92
98
83
84
77
117
230
215
213
214
211
209
211
207
206
206
206
205
203
202
202
199
127
106
91
95
154
140
113
120
114
108
110
111
110
108
110
110
104
104
104
102
103
103
106
110
108
102
100
95
97
99
100
106
107
103
104
109
112
122
117
106
97
94
84
84
87
96
92
96
97
90
95
98
101
100
95
97
97
98
103
106
107
106
108
113
109
102
103
100
97
96
90
95
83
87
75
152
226
215
215
213
212
211
211
210
207
206
205
203
204
202
199
199
127
122
90
95
147
144
141
112
111
110
107
107
111
113
109
111
105
113
112
107
107
108
108
105
102
93
89
73
72
86
92
99
101
105
110
107
112
119
129
110
98
98
86
82
85
90
93
94
99
98
97
98
96
100
97
100
99
103
111
108
116
118
116
113
107
102
102
98
96
94
95
86
80
95
70
204
221
216
215
214
213
210
209
208
207
206
205
203
202
203
202
200
126
130
104
98
137
145
134
108
117
110
104
110
107
109
115
113
108
115
109
106
107
107
99
96
94
83
68
62
82
95
93
96
106
112
105
102
112
125
134
115
107
97
86
81
80
81
82
84
80
89
91
98
97
102
105
100
102
106
106
111
116
117
118
118
107
102
101
100
96
98
96
91
94
93
100
223
220
216
216
213
212
211
209
209
208
205
204
205
203
201
200
199
128
130
125
139
138
145
115
115
105
100
107
107
105
105
108
109
109
105
99
103
98
95
91
84
72
65
58
73
92
91
96
96
98
108
104
102
115
121
124
117
104
90
89
77
71
84
80
84
77
72
83
93
103
102
102
108
105
104
107
110
108
114
114
113
108
101
100
98
100
95
97
96
93
80
132
222
217
216
215
214
212
211
211
209
207
206
204
203
204
201
203
198
125
131
134
130
139
142
116
117
102
105
106
108
110
106
108
107
103
99
101
96
93
81
80
72
62
61
65
92
96
93
93
93
100
106
101
102
112
123
126
108
106
90
79
75
79
87
83
83
85
71
69
84
94
101
107
105
106
110
110
115
113
115
115
113
107
105
101
98
98
95
97
100
95
88
162
217
218
216
215
215
213
212
211
209
208
206
205
203
203
202
201
199
129
129
133
128
134
131
121
113
103
101
100
105
101
97
99
98
95
98
96
91
79
74
67
62
66
68
80
106
103
102
100
101
104
110
103
110
120
121
109
116
97
92
88
74
83
86
82
87
84
77
66
67
81
91
98
102
100
109
112
114
113
114
113
115
106
106
100
97
96
95
94
104
104
101
137
214
214
216
215
215
214
212
210
208
207
205
202
204
205
201
200
198
128
130
133
136
134
130
115
112
102
98
93
97
96
93
92
92
94
92
92
83
73
71
63
64
73
72
89
104
103
107
105
108
111
108
101
100
112
122
120
108
95
86
86
78
88
93
87
89
86
76
73
67
70
82
89
94
99
103
108
112
113
109
108
111
104
105
101
99
94
96
98
105
109
124
117
206
215
215
215
213
214
210
211
208
208
206
205
201
201
200
200
198
128
134
131
136
134
124
107
108
96
94
93
92
91
91
89
89
90
85
85
77
69
67
62
72
76
75
91
101
100
107
105
107
106
97
102
102
109
113
109
105
93
83
83
80
86
94
92
91
90
77
70
71
66
72
84
89
94
97
103
99
104
104
105
106
105
101
97
99
98
98
99
108
114
107
102
196
218
215
215
214
211
210
210
209
206
206
205
203
202
202
201
199
123
132
127
135
128
114
110
108
97
91
91
91
87
86
85
88
85
78
78
72
63
58
62
78
77
77
88
98
103
109
104
111
112
95
98
92
92
105
101
91
81
84
86
82
84
88
94
92
88
77
75
80
73
66
72
84
88
93
96
98
99
100
100
101
99
100
96
96
97
100
100
104
125
105
94
179
216
215
215
213
214
211
209
207
206
205
205
204
202
204
202
199
127
129
132
137
126
106
101
99
102
91
88
89
85
84
82
80
80
74
72
65
56
57
71
77
80
78
80
82
94
98
106
107
108
96
93
91
90
93
91
90
90
88
82
81
88
87
86
88
85
75
83
86
79
69
72
79
84
89
92
97
100
98
99
96
97
96
96
95
96
101
101
125
136
104
94
161
215
215
214
214
212
212
209
208
207
205
203
204
204
202
201
198
126
132
130
132
125
96
96
97
99
92
84
81
82
79
82
76
73
71
68
56
57
69
74
78
82
78
78
70
59
51
55
84
99
96
89
88
89
90
89
91
86
81
75
74
83
83
83
82
76
75
81
87
86
78
68
73
81
89
87
91
96
95
92
94
92
94
96
91
97
101
104
236
191
104
98
139
209
215
215
213
211
210
207
205
204
205
203
201
203
204
201
199
127
128
131
133
135
103
92
90
93
90
82
78
81
77
76
73
71
65
61
55
64
70
72
73
80
80
81
76
69
60
51
50
79
90
84
85
87
88
90
85
82
73
70
72
67
62
65
67
73
77
83
83
82
82
76
71
77
85
86
87
91
91
89
93
91
92
96
95
97
103
130
255
219
116
103
123
206
215
215
212
211
210
208
205
204
205
204
200
202
200
201
199
127
128
128
136
136
107
88
88
95
88
83
82
75
74
68
67
67
61
49
59
67
70
69
75
77
78
83
84
80
72
68
59
60
82
82
80
81
84
77
74
69
65
58
47
50
56
64
72
76
81
85
82
76
79
79
71
73
79
86
84
89
92
89
92
89
90
94
95
98
108
176
255
247
127
108
110
199
213
214
211
213
212
209
205
190
202
201
201
202
200
198
200
125
132
129
134
139
113
94
86
91
86
80
82
76
70
70
66
62
56
53
68
70
70
75
77
77
81
83
83
81
79
78
74
63
56
76
81
79
75
76
71
65
59
62
64
68
68
71
78
83
83
83
77
78
77
77
73
71
76
81
82
89
88
88
90
90
89
93
94
101
122
214
255
254
151
112
103
187
210
215
211
217
212
202
200
184
198
202
201
200
199
201
198
124
133
130
131
140
124
96
89
91
89
83
78
78
74
66
60
58
55
61
68
71
70
74
78
79
84
82
83
82
80
80
79
71
62
54
61
65
72
71
65
60
66
68
68
68
70
77
79
84
82
81
75
79
77
76
75
76
74
75
82
87
86
84
90
88
89
92
97
106
132
240
255
255
176
116
103
174
212
212
212
218
213
201
193
186
193
204
202
201
199
201
199
128
132
131
132
138
134
104
95
90
96
90
78
72
69
65
65
59
57
62
65
69
72
75
81
75
80
80
81
87
80
75
82
78
71
62
58
56
57
57
63
68
66
71
71
74
79
80
79
80
81
81
78
80
81
81
82
76
75
75
79
81
84
87
88
89
89
95
101
114
152
254
253
255
196
123
105
157
210
215
214
217
214
206
201
193
188
204
202
203
201
200
200
126
130
133
135
134
136
109
95
101
97
87
86
79
73
72
69
64
59
64
68
68
67
70
79
75
83
82
84
78
82
78
80
79
74
68
65
64
63
64
66
72
73
75
76
78
77
77
81
76
78
80
78
75
74
81
76
77
81
80
83
87
90
89
90
90
93
106
108
125
181
255
252
255
220
128
108
145
210
215
215
218
218
205
201
201
185
202
204
201
199
200
199
123
131
133
132
136
135
116
101
103
99
91
89
79
79
74
65
66
62
70
71
70
63
68
78
80
79
80
80
85
81
82
79
78
74
72
73
64
64
63
65
68
78
77
79
75
82
81
79
74
76
77
68
72
76
80
79
82
85
84
91
94
96
96
96
102
105
111
114
128
211
255
252
255
237
140
114
130
208
215
210
216
221
213
209
206
192
202
203
203
200
201
198
123
130
130
137
135
133
123
101
101
92
92
93
89
80
74
75
71
66
70
68
68
68
67
76
82
83
83
83
84
88
87
81
86
88
81
82
84
75
75
71
79
82
81
75
75
80
78
76
74
76
74
72
71
72
77
79
81
85
91
95
101
101
104
105
104
108
111
120
142
240
255
252
254
252
152
118
120
201
215
213
214
214
210
206
202
204
204
205
203
202
203
197
124
127
132
133
137
132
131
105
106
96
93
91
85
81
81
77
73
65
69
72
71
67
60
61
85
91
90
87
90
94
94
91
100
100
97
93
82
88
93
95
92
91
87
85
83
82
81
78
77
76
72
72
74
75
78
82
86
89
94
101
107
107
110
109
107
110
112
128
168
255
253
252
253
255
164
125
114
194
219
214
211
212
209
205
204
205
207
209
205
204
201
199
119
124
130
133
138
132
129
110
97
96
91
91
84
89
82
75
75
72
74
74
70
66
55
44
44
54
70
72
74
74
76
84
82
91
102
102
92
97
101
104
102
98
90
89
86
87
82
82
79
77
71
65
69
79
83
84
88
96
100
104
104
108
109
111
111
111
121
136
204
255
252
253
253
255
182
129
115
182
219
217
214
215
212
209
210
208
207
205
205
202
203
199
118
123
127
132
132
129
132
121
97
97
92
93
88
87
81
79
76
71
69
69
71
66
62
76
69
34
35
45
67
74
67
65
68
68
71
82
92
94
87
83
79
76
70
69
71
69
73
66
63
59
68
69
74
79
85
89
92
99
102
105
110
108
103
110
112
109
126
149
235
255
252
253
252
255
205
136
121
161
217
219
218
215
215
214
211
210
208
209
206
203
202
199
116
117
123
126
128
127
128
127
106
96
94
88
84
82
81
81
78
75
73
72
67
66
68
81
85
74
56
52
58
76
82
84
76
72
67
68
70
68
63
62
58
60
62
65
65
66
51
57
57
69
80
81
77
79
87
90
89
96
99
105
107
101
100
110
108
112
127
180
255
253
252
252
253
255
222
142
124
148
218
220
217
216
215
214
211
210
210
210
206
204
201
200
109
110
123
121
124
123
124
130
120
94
96
90
84
85
82
81
77
74
70
66
69
68
74
81
82
86
78
71
64
63
65
67
60
70
77
78
69
68
75
79
81
74
85
66
63
66
60
64
72
84
84
85
79
79
84
90
95
103
105
103
101
105
106
108
109
121
141
231
255
253
252
252
253
255
236
150
132
136
212
220
218
216
216
215
213
213
208
209
207
205
200
199
104
107
117
115
124
124
122
126
130
103
95
91
85
89
79
79
78
72
72
69
70
73
75
78
78
82
87
84
81
81
82
78
73
62
52
50
39
42
54
63
61
59
67
71
75
77
80
85
84
81
83
80
78
85
84
88
95
101
101
101
104
102
103
107
116
124
179
255
252
253
252
253
252
255
246
159
133
132
203
221
221
219
216
215
214
213
210
210
206
203
203
200
101
108
112
114
118
120
121
120
124
114
92
84
82
85
82
74
73
70
71
75
74
71
70
76
77
82
83
85
86
85
82
88
88
90
89
80
72
72
73
81
80
80
78
78
81
83
78
82
78
81
86
79
81
85
82
91
91
99
98
97
100
101
103
110
116
138
234
255
253
252
253
253
253
253
254
174
132
126
190
221
218
218
216
214
215
210
209
208
206
204
201
198
101
108
110
112
114
117
119
115
117
121
90
84
85
75
79
74
77
70
70
72
76
75
73
79
77
75
81
87
81
83
88
90
95
95
104
106
95
92
95
93
95
94
88
83
80
83
77
77
77
81
84
82
79
80
87
88
94
98
97
100
99
99
101
111
121
180
255
252
253
253
253
253
253
253
255
187
135
121
179
221
218
217
216
216
214
211
210
207
206
203
202
197
107
108
112
109
112
116
115
117
118
117
102
86
81
81
74
74
70
69
70
75
76
78
76
79
81
80
83
87
80
83
90
88
90
97
100
103
98
99
102
95
99
94
91
84
79
76
79
78
77
81
83
83
82
85
91
85
90
96
95
100
96
101
102
109
129
246
255
252
252
252
253
253
253
252
255
202
142
124
162
218
219
217
215
214
214
213
209
208
206
203
201
197
98
106
108
110
112
114
116
116
116
118
123
87
82
82
79
72
70
73
75
74
76
80
81
79
81
82
85
86
85
84
86
92
90
97
95
97
91
93
96
94
96
92
85
80
79
77
74
75
78
79
84
86
88
89
89
88
88
91
94
94
95
97
100
102
155
255
255
252
252
253
252
253
253
252
255
224
144
128
143
216
217
217
216
213
211
212
207
209
206
202
200
198
111
87
106
111
113
115
120
118
114
115
123
107
72
77
73
69
71
77
79
81
79
82
78
79
80
80
80
85
84
82
78
81
83
85
90
93
93
94
92
89
82
80
72
73
75
73
69
75
78
79
86
89
87
89
87
89
89
88
90
92
94
92
95
100
118
176
239
255
255
255
252
253
253
252
255
236
143
128
128
209
217
217
215
213
212
210
208
206
202
202
198
195
96
105
115
115
116
116
117
118
113
113
117
121
88
71
74
77
69
74
74
81
82
87
78
80
79
79
78
80
82
79
78
72
74
73
77
77
78
81
76
75
73
68
66
70
72
72
72
76
79
83
82
90
89
88
91
88
89
86
88
86
88
91
89
95
101
103
125
169
217
255
255
255
254
253
254
246
157
124
118
197
214
215
213
212
210
209
206
206
204
197
199
195
100
117
116
116
114
117
117
112
112
115
119
120
110
77
76
76
73
75
84
79
83
84
79
81
78
84
79
78
76
75
71
67
66
67
60
64
62
60
61
61
66
65
67
70
73
72
74
76
76
80
81
88
91
89
92
88
86
84
87
84
90
92
87
87
93
98
109
119
127
143
175
216
249
255
255
255
187
133
117
189
214
215
215
211
210
208
206
205
201
200
197
193
109
115
115
119
115
118
116
116
114
117
118
117
117
100
72
69
78
80
80
85
82
86
84
79
83
78
78
79
77
79
74
71
68
67
66
65
65
70
70
71
69
67
72
75
73
76
77
77
81
80
79
82
88
92
86
85
85
81
81
88
88
84
85
87
89
95
100
107
112
119
129
135
151
186
222
242
241
204
155
170
213
213
212
210
207
207
205
203
202
199
200
192
111
118
117
115
116
116
112
115
114
115
117
114
116
123
88
71
72
76
76
84
82
80
82
85
86
76
80
81
76
74
77
74
75
78
73
73
76
78
72
74
74
73
72
72
72
74
73
78
80
82
75
85
85
88
83
82
80
81
83
78
80
84
86
85
88
90
99
103
106
112
124
124
127
130
126
131
132
151
186
185
227
224
212
208
207
204
204
202
199
200
197
194
111
117
115
114
113
115
116
117
114
119
118
118
116
122
117
83
71
69
75
79
79
88
84
89
85
85
86
80
79
79
81
76
77
77
74
76
77
77
81
77
79
78
79
79
76
79
79
81
77
82
79
83
81
86
80
80
73
76
74
78
81
81
82
85
87
89
95
99
102
107
111
116
121
118
122
117
117
117
112
116
146
185
214
211
203
205
206
199
198
196
196
191
111
116
111
112
116
115
117
117
119
120
119
119
116
118
122
114
78
67
65
75
79
87
84
90
85
85
88
81
82
78
81
81
87
92
87
80
91
92
91
90
90
92
89
79
80
79
81
84
84
86
81
78
79
81
78
68
70
73
77
76
78
79
79
81
87
88
93
95
102
103
105
112
113
117
112
113
113
112
112
106
102
98
115
140
175
199
213
205
198
195
196
196
112
119
114
110
116
117
118
118
121
120
120
121
118
118
121
122
100
82
70
67
76
85
81
87
88
87
89
84
82
79
78
79
87
90
86
86
89
91
88
87
85
79
83
82
80
77
79
82
85
84
79
76
78
73
68
71
73
73
75
77
78
78
80
82
86
89
91
92
99
102
105
110
108
105
109
111
108
105
111
109
109
104
96
95
101
111
141
175
203
202
202
192
115
119
114
113
117
119
119
120
121
121
120
120
115
120
119
119
102
91
77
72
64
74
89
87
89
90
86
83
83
76
79
81
85
84
81
88
88
87
86
87
89
81
76
77
74
83
72
77
86
79
76
74
72
67
68
73
72
73
72
78
77
80
82
83
83
83
89
90
94
101
99
103
105
106
109
109
104
103
106
104
107
102
99
99
102
101
95
92
103
132
164
196
111
118
115
114
119
120
121
118
121
119
120
121
117
120
122
116
107
94
91
80
78
70
80
86
90
89
86
82
80
80
79
84
82
77
88
87
92
92
96
92
82
79
81
77
75
79
77
82
79
73
75
72
66
67
72
73
70
72
73
75
75
80
77
82
82
82
90
91
90
96
95
100
101
100
102
105
102
104
105
104
103
103
103
99
99
102
102
99
97
91
90
95
111
116
115
116
118
123
119
122
122
123
119
118
118
119
123
120
116
93
85
82
78
78
73
87
92
83
88
84
83
81
80
77
83
88
93
90
91
87
88
93
92
88
82
86
80
82
83
80
74
71
71
70
63
69
73
73
69
68
75
76
78
81
78
81
81
83
85
87
91
92
95
98
102
102
98
104
103
104
104
105
104
102
100
98
97
104
100
96
98
92
93
94
115
117
117
116
119
123
120
122
124
119
121
122
118
121
121
118
122
98
85
84
83
77
73
73
88
88
85
86
78
81
79
82
83
83
81
80
83
81
79
85
88
83
80
83
82
77
74
70
75
73
67
66
69
74
68
66
68
72
76
80
75
76
78
78
79
80
80
84
90
91
91
95
98
105
98
102
99
99
101
103
101
104
100
100
97
102
98
93
93
97
93
96
114
117
115
115
118
124
117
121
122
121
121
119
121
120
124
121
156
109
87
83
78
80
75
74
77
82
77
81
77
82
76
73
78
79
77
79
74
76
72
76
75
82
74
72
74
71
70
74
68
63
64
66
67
67
63
63
66
78
77
77
73
76
75
82
74
80
80
83
86
90
89
94
98
99
100
100
97
97
100
97
101
103
97
100
95
97
99
91
94
92
91
92
112
115
115
119
119
121
120
122
121
124
124
119
117
128
134
165
161
115
88
84
73
85
78
72
71
79
77
72
79
75
68
76
74
70
75
67
64
68
69
74
76
77
76
73
71
71
70
65
62
63
63
64
60
61
59
64
73
74
74
73
74
73
76
78
76
78
80
82
82
88
87
98
96
99
99
95
96
101
95
102
100
99
99
93
92
95
100
98
99
91
91
91
110
116
116
119
120
120
119
123
123
121
117
119
124
142
163
154
138
117
91
83
73
79
75
73
68
73
71
68
68
73
71
72
73
71
66
63
60
61
66
70
75
73
70
70
69
66
63
60
61
60
60
57
60
57
61
68
73
71
69
69
72
73
71
75
74
78
79
82
81
86
88
91
92
96
99
91
94
95
97
99
101
97
98
91
95
95
93
94
95
92
90
93
110
110
115
115
115
114
119
116
121
117
121
123
144
157
149
138
132
118
90
82
79
78
74
74
69
72
73
68
63
62
63
63
67
61
61
61
58
56
59
60
64
65
65
63
61
61
59
57
55
56
58
57
59
61
65
71
69
66
66
73
69
68
70
72
71
74
81
80
79
79
88
87
93
93
94
94
92
98
94
97
96
97
95
89
90
93
92
93
88
92
94
89
